<svg width="50" height="20" viewBox="0 0 272 289" fill="none" xmlns="http://www.w3.org/2000/svg">
<g filter="url(#filter0_d_61_420)">
<path d="M182.005 215.33L180.051 218.85C181.16 216.673 182.005 215.33 182.005 215.33Z" fill="#B7AB98"/>
<path d="M128.608 151.705L131.187 153.808C131.46 154.026 131.774 154.35 132.048 154.568C130.76 153.691 129.626 152.714 128.608 151.705Z" fill="#0D0D0D"/>
<path d="M153.6 160.313C160.506 159.593 166.734 156.542 173.439 154.941C187.046 151.744 202.597 154.801 213.803 163.029C193.19 163.755 172.657 164.519 152.044 165.245C147.23 165.392 143.88 163.968 140.72 161.849L132.359 154.892C138.447 159.018 146.268 161.092 153.6 160.313Z" fill="#0D0D0D"/>
<path d="M132.048 154.568C131.774 154.35 131.46 154.026 131.187 153.808L132.398 154.823C132.242 154.748 132.203 154.642 132.048 154.568Z" fill="#0D0D0D"/>
<path d="M72.2962 35.4496C72.2962 35.4496 78.5051 24.2707 97.3545 16.2438C116.204 8.21687 161.057 19.7565 180.098 37.3094C199.138 54.8616 191.746 74.0304 198.043 79.9151C204.376 85.7306 238.49 99.2156 250.036 127.421C261.585 155.627 244.714 168.788 244.719 174.464C244.721 180.139 258.775 200.987 246.426 231.93C234.077 262.873 190.448 249.125 180.295 241.487C172.954 235.889 177.18 224.551 180.049 218.849L182.005 215.33C182.005 215.33 181.16 216.673 180.049 218.849L153.995 265.775C153.995 265.775 131.961 273.678 83.2432 249.033C34.525 224.39 17.9147 199.442 17.9147 199.442L48.3765 144.582C48.3765 144.582 24.2708 124.612 21.6312 109.125C18.9534 93.7062 25.0893 62.5912 37.5293 48.712C50.2399 34.8749 72.2962 35.4496 72.2962 35.4496Z" fill="#B7AB98"/>
<path d="M72.2962 35.4496C72.2962 35.4496 78.5051 24.2707 97.3545 16.2438C116.204 8.21687 161.059 19.7569 180.098 37.3094C182.835 39.8373 184.988 42.3487 186.794 44.9562C178.66 42.3842 169.838 41.4043 161.302 42.0444C145.082 43.3825 130.109 50.4658 118.3 60.1938C109.538 67.4482 102.269 76.6364 100.369 87.339C98.4685 98.0419 103.1 110.291 113.589 116.081C119.847 106.76 126.302 97.2697 136.193 90.9919C145.972 84.7463 160.127 82.51 170.54 88.6137C168.446 99.486 158.406 107.091 151.29 115.828C144.171 124.564 140.235 138.223 149.339 145.972C157.583 152.961 170.339 150.406 181.398 149.661C198.244 148.621 215.636 153.515 229.18 163.034C229.04 170.212 219.555 174.153 211.629 173.339C203.702 172.524 196.373 168.678 188.481 167.269C180.587 165.859 170.897 168.044 168.774 174.886C167.672 178.289 168.405 182.828 165.04 184.627C162.373 186.06 158.791 184.7 156.023 183.292C138.954 174.973 121.809 166.616 104.702 158.366C99.9085 155.991 94.6483 153.569 89.2552 154.05C84.7142 154.415 80.8095 156.829 77.3362 159.361C68.5675 165.74 61.1717 173.733 55.8035 182.693C54.8061 184.312 53.8883 186.144 54.2513 187.975C54.5729 189.526 55.7081 190.853 56.8811 191.937C63.4904 198.32 72.2593 202.417 80.5619 206.815C98.5689 216.282 115.314 227.851 130.243 241.084C131.807 242.529 133.45 244.012 134.278 245.891C135.385 248.514 134.67 251.403 133.562 253.929C131.692 258.186 128.613 261.779 124.906 264.725C114.211 262.327 100.432 257.672 83.3989 249.107C34.6807 224.464 18.0704 199.517 18.0704 199.517L48.532 144.656C48.532 144.656 24.4265 124.687 21.7869 109.199C19.1091 93.7803 25.2475 62.6657 37.685 48.786C50.2398 34.8749 72.2962 35.4496 72.2962 35.4496Z" fill="#A8A094"/>
<path d="M68.9984 30.3838C72.1909 26.233 79.8947 17.8631 94.8331 11.5493C111.982 4.28148 143.402 10.8954 164.289 20.8617C172.394 24.7293 179.066 29.0479 184.07 33.7053C197.558 46.1647 199.212 59.5232 200.325 68.3471C200.735 71.3363 201.194 75.483 202.132 76.2797C203.187 77.2198 206.347 79.1638 209.777 81.1503C223.35 89.1978 246.007 102.541 255.537 125.681C264.989 148.784 256.865 163.064 252.535 170.861C251.767 172.241 250.811 173.967 250.621 174.662C250.783 175.437 251.419 177.487 252.014 179.08C255.345 188.526 262.168 208.192 251.915 233.763C247.952 243.743 240.74 250.516 230.555 253.949C213.396 259.639 192.81 253.57 183.303 249.032C180.732 247.806 178.586 246.521 176.907 245.284C175.658 244.337 174.6 243.223 173.662 242.074L159.179 268.159C158.604 269.194 157.638 270.045 156.399 270.499C155.433 270.823 133.046 278.474 86.2075 256.121C84.4172 255.268 82.5456 254.374 80.7911 253.449C31.2151 228.396 14.0606 203.014 13.2754 201.942C12.2545 200.408 12.2004 198.549 13.0448 197.031L41.6649 145.482C34.5504 139.12 18.5943 123.475 16.2766 109.712C13.3531 92.4303 20.2572 59.9354 33.3493 45.4081C44.4398 33.0677 61.7784 30.7796 68.9984 30.3838ZM26.525 98.8902C25.8177 103.005 25.879 105.914 27.1797 108.542C28.3244 110.922 30.512 113.014 34.0654 115.494C41.2849 120.598 49.9649 123.431 58.7557 125.356C65.6014 126.876 68.3685 123.134 68.1661 116.752C68.0538 112.335 66.1991 108.045 64.7297 103.765C59.4523 88.5901 59.1698 71.346 68.0797 58.1397C66.1433 64.1117 64.6742 70.3069 63.7893 76.5186C63.2344 80.1816 62.9499 83.8871 63.2498 87.609C64.2421 100.739 72.6747 112.358 82.145 122.114C84.3355 124.381 86.8058 127.568 89.5747 129.326C92.7344 131.27 97.0911 132.126 100.594 133.624C106.049 136.052 112.489 140.609 117.931 135.96C120.553 133.72 121.695 130.424 122.835 127.302C127.023 115.857 132.174 103.913 142.72 96.6375C146.738 93.8411 151.381 91.8672 155.992 90.1384C141.812 99.6956 131.236 113.416 126.186 128.901C123.189 138.208 123.563 146.766 131.11 153.771L128.532 151.668C129.626 152.714 130.758 153.691 131.968 154.53C132.086 154.674 132.242 154.748 132.439 154.929C135.484 157.43 137.987 159.847 140.758 161.78L144.001 164.462C150.603 169.795 157.59 174.612 166.076 177.614C142.178 169.877 122.529 153.779 99.4697 144.173C91.876 140.985 83.7017 138.482 75.4707 138.57C54.6227 138.834 48.5391 156.007 40.7609 170.016C35.3584 179.746 29.994 189.407 24.5915 199.137C29.8437 205.657 47.7714 225.211 85.9272 244.553C87.6817 245.478 89.3973 246.297 91.111 247.114C91.4226 247.263 91.6577 247.374 91.969 247.524C100.763 249.974 112.704 252.79 117.395 251.975C125.267 250.581 119.43 238.369 103.388 227.134C87.3469 215.902 29.189 196.006 29.189 196.006C29.189 196.006 90.0182 209.844 123.026 231.356C141.599 243.536 149.312 251.841 152.533 256.871C152.177 256.265 155.366 251.762 155.674 251.211C158.088 246.865 159.552 245.294 156.335 240.789C154.255 237.79 152.096 234.928 149.515 232.299C145.29 228.013 140.14 224.682 135.029 221.283C144.205 223.043 152.857 227.52 159.31 233.831C159.702 234.191 160.134 234.658 160.754 234.782C161.106 234.862 161.453 234.765 161.802 234.671C166.334 233.254 168.709 228.976 170.742 225.319C172.581 222.006 174.776 219.824 177.162 216.948C182.782 210.377 182.899 200.045 180.316 192.091C179.721 190.323 178.932 188.55 177.486 187.249C179.784 188.433 181.275 190.541 182.649 192.506C185.161 196.149 187.364 199.993 188.443 204.087C189.884 209.838 187.913 216.054 185.115 221.091C182.092 227.243 180.092 234.755 183.799 237.485C184.345 237.921 185.635 238.799 188.127 239.988C198.181 244.785 214.438 248.178 226.135 244.332C233.145 242.004 238.196 237.168 241.093 229.996C250.05 207.647 244.181 190.879 241.006 181.858C239.858 178.603 239.063 176.304 239.008 174.271C239.026 171.574 240.369 169.159 242.132 165.984C246.233 158.776 252.401 147.841 244.65 128.954C236.504 109.18 215.875 96.9787 203.551 89.7013C199.104 87.0559 195.906 85.1808 193.875 83.3382C190.082 79.8702 189.502 74.8794 188.839 69.1507C187.806 60.8895 186.526 50.5891 175.93 40.7322C171.826 36.9403 166.012 33.2061 159.076 29.8965C138.111 19.8929 111.484 15.8285 99.7175 20.863C82.9587 27.9671 77.2069 37.7924 77.1687 37.8613C76.2123 39.5869 74.2774 40.5842 72.1417 40.5252C71.9478 40.5199 52.6475 40.1264 42.0181 51.9887C30.467 64.9821 29.3576 82.9584 26.525 98.8902Z" fill="#0D0D0D"/>
<path d="M116.539 21.8189C126.937 21.0202 137.601 24.3629 146.224 29.9616C147.318 30.6576 148.449 31.4595 149 32.5957C149.553 33.7321 149.446 35.1653 148.365 35.8713C139.876 32.5187 129.845 30.6999 121.679 34.2225C118.428 35.6393 115.763 37.7722 113.1 39.9059C110.091 42.3102 107.079 44.7143 104.067 47.1182C102.332 48.4718 100.671 49.8619 98.5035 50.5729C96.4126 51.3209 93.8103 51.3888 91.8997 50.2151C90.1448 49.1158 89.2358 47.1986 88.9901 45.3352C88.538 42.0645 89.6396 38.8369 91.2882 36.0447C96.2748 27.7747 106.138 22.6171 116.539 21.8189Z" fill="#0D0D0D"/>
<path d="M196.815 217.596C197.785 217.623 198.684 218.139 199.501 218.616C204.297 221.342 212.832 225.501 218.291 223.305C218.793 223.109 219.219 222.875 219.683 222.573C223.546 219.877 224.863 214.133 231.044 215.25C231.744 215.409 232.523 215.606 233.142 215.378C233.762 215.15 234.184 214.566 234.489 214.014C235.484 212.044 237.824 197.71 242.159 206.238C243.38 208.654 243.444 212.089 243.347 214.574C243.272 220.212 241.411 225.696 237.911 230.224C231.796 238.043 220.84 242.504 210.117 241.575C203.9 241.055 197.632 238.675 193.909 234.016C190.186 229.359 189.978 222.452 194.337 218.684C195.071 218.074 195.843 217.569 196.815 217.596Z" fill="#0D0D0D"/>
</g>
<defs>
<filter id="filter0_d_61_420" x="0.456543" y="0.470703" width="271.466" height="287.549" filterUnits="userSpaceOnUse" color-interpolation-filters="sRGB">
<feFlood flood-opacity="0" result="BackgroundImageFix"/>
<feColorMatrix in="SourceAlpha" type="matrix" values="0 0 0 0 0 0 0 0 0 0 0 0 0 0 0 0 0 0 127 0" result="hardAlpha"/>
<feOffset dy="4"/>
<feGaussianBlur stdDeviation="6"/>
<feComposite in2="hardAlpha" operator="out"/>
<feColorMatrix type="matrix" values="0 0 0 0 0 0 0 0 0 0 0 0 0 0 0 0 0 0 0.25 0"/>
<feBlend mode="normal" in2="BackgroundImageFix" result="effect1_dropShadow_61_420"/>
<feBlend mode="normal" in="SourceGraphic" in2="effect1_dropShadow_61_420" result="shape"/>
</filter>
</defs>
</svg>
