<svg width="682" height="502" viewBox="0 0 682 502" fill="none" xmlns="http://www.w3.org/2000/svg">
<g filter="url(#filter0_d_34_39)">
<mask id="path-1-outside-1_34_39" maskUnits="userSpaceOnUse" x="14" y="24" width="615" height="133" fill="black">
<rect fill="white" x="14" y="24" width="615" height="133"/>
<path d="M17.4905 90.24C17.4905 82.7667 18.9472 75.5467 21.8605 68.58C24.9005 61.6133 29.1438 55.47 34.5905 50.15C40.1638 44.7033 46.8138 40.3967 54.5405 37.23C62.3938 33.9367 71.0705 32.29 80.5705 32.29H148.971V52.62H81.3305C77.5305 52.62 73.4772 53.6967 69.1705 55.85C64.9905 57.8767 61.0638 60.6633 57.3905 64.21C53.8438 67.7567 50.8672 71.81 48.4605 76.37C46.1805 80.8033 45.0405 85.3633 45.0405 90.05C45.0405 94.7367 46.1805 99.36 48.4605 103.92C50.7405 108.353 53.6538 112.343 57.2005 115.89C60.8738 119.437 64.9272 122.287 69.3605 124.44C73.7938 126.593 78.2272 127.67 82.6605 127.67H148.971V148H80.0005C69.8672 148 60.9372 146.29 53.2105 142.87C45.4838 139.323 38.9605 134.763 33.6405 129.19C28.3205 123.617 24.2672 117.41 21.4805 110.57C18.8205 103.73 17.4905 96.9533 17.4905 90.24ZM162.588 90.81C162.588 82.07 164.551 73.8367 168.478 66.11C172.405 58.3833 177.788 51.67 184.628 45.97C191.468 40.27 199.448 35.7733 208.568 32.48C217.688 29.06 227.505 27.35 238.018 27.35C248.785 27.35 258.728 28.9967 267.848 32.29C277.095 35.5833 285.075 40.08 291.788 45.78C298.628 51.48 303.948 58.1933 307.748 65.92C311.548 73.6467 313.448 81.9433 313.448 90.81C313.448 99.6767 311.485 107.91 307.558 115.51C303.758 123.11 298.502 129.697 291.788 135.27C285.075 140.843 277.095 145.213 267.848 148.38C258.602 151.547 248.658 153.13 238.018 153.13C227.505 153.13 217.688 151.547 208.568 148.38C199.448 145.213 191.468 140.843 184.628 135.27C177.788 129.697 172.405 123.11 168.478 115.51C164.551 107.91 162.588 99.6767 162.588 90.81ZM190.708 90.81C190.708 96.13 191.911 101.197 194.318 106.01C196.851 110.697 200.271 114.813 204.578 118.36C208.885 121.78 213.825 124.567 219.398 126.72C225.098 128.747 231.178 129.76 237.638 129.76C244.225 129.76 250.432 128.81 256.258 126.91C262.085 124.883 267.152 122.16 271.458 118.74C275.892 115.32 279.375 111.267 281.908 106.58C284.442 101.767 285.708 96.51 285.708 90.81C285.708 85.49 284.505 80.4233 282.098 75.61C279.692 70.67 276.335 66.3633 272.028 62.69C267.722 59.0167 262.655 56.1033 256.828 53.95C251.128 51.7967 244.858 50.72 238.018 50.72C231.432 50.72 225.225 51.7967 219.398 53.95C213.698 56.1033 208.695 59.08 204.388 62.88C200.208 66.5533 196.851 70.7967 194.318 75.61C191.911 80.4233 190.708 85.49 190.708 90.81ZM327.91 90.81C327.91 82.07 329.874 73.8367 333.8 66.11C337.727 58.3833 343.11 51.67 349.95 45.97C356.79 40.27 364.77 35.7733 373.89 32.48C383.01 29.06 392.827 27.35 403.34 27.35C414.107 27.35 424.05 28.9967 433.17 32.29C442.417 35.5833 450.397 40.08 457.11 45.78C463.95 51.48 469.27 58.1933 473.07 65.92C476.87 73.6467 478.77 81.9433 478.77 90.81C478.77 99.6767 476.807 107.91 472.88 115.51C469.08 123.11 463.824 129.697 457.11 135.27C450.397 140.843 442.417 145.213 433.17 148.38C423.924 151.547 413.98 153.13 403.34 153.13C392.827 153.13 383.01 151.547 373.89 148.38C364.77 145.213 356.79 140.843 349.95 135.27C343.11 129.697 337.727 123.11 333.8 115.51C329.874 107.91 327.91 99.6767 327.91 90.81ZM356.03 90.81C356.03 96.13 357.234 101.197 359.64 106.01C362.174 110.697 365.594 114.813 369.9 118.36C374.207 121.78 379.147 124.567 384.72 126.72C390.42 128.747 396.5 129.76 402.96 129.76C409.547 129.76 415.754 128.81 421.58 126.91C427.407 124.883 432.474 122.16 436.78 118.74C441.214 115.32 444.697 111.267 447.23 106.58C449.764 101.767 451.03 96.51 451.03 90.81C451.03 85.49 449.827 80.4233 447.42 75.61C445.014 70.67 441.657 66.3633 437.35 62.69C433.044 59.0167 427.977 56.1033 422.15 53.95C416.45 51.7967 410.18 50.72 403.34 50.72C396.754 50.72 390.547 51.7967 384.72 53.95C379.02 56.1033 374.017 59.08 369.71 62.88C365.53 66.5533 362.174 70.7967 359.64 75.61C357.234 80.4233 356.03 85.49 356.03 90.81ZM527.623 32.29V87.2L584.053 32.29H620.723L562.773 89.67L620.723 148H584.053L527.623 93.09V148H496.653V32.29H527.623Z"/>
</mask>
<path d="M17.4905 90.24C17.4905 82.7667 18.9472 75.5467 21.8605 68.58C24.9005 61.6133 29.1438 55.47 34.5905 50.15C40.1638 44.7033 46.8138 40.3967 54.5405 37.23C62.3938 33.9367 71.0705 32.29 80.5705 32.29H148.971V52.62H81.3305C77.5305 52.62 73.4772 53.6967 69.1705 55.85C64.9905 57.8767 61.0638 60.6633 57.3905 64.21C53.8438 67.7567 50.8672 71.81 48.4605 76.37C46.1805 80.8033 45.0405 85.3633 45.0405 90.05C45.0405 94.7367 46.1805 99.36 48.4605 103.92C50.7405 108.353 53.6538 112.343 57.2005 115.89C60.8738 119.437 64.9272 122.287 69.3605 124.44C73.7938 126.593 78.2272 127.67 82.6605 127.67H148.971V148H80.0005C69.8672 148 60.9372 146.29 53.2105 142.87C45.4838 139.323 38.9605 134.763 33.6405 129.19C28.3205 123.617 24.2672 117.41 21.4805 110.57C18.8205 103.73 17.4905 96.9533 17.4905 90.24ZM162.588 90.81C162.588 82.07 164.551 73.8367 168.478 66.11C172.405 58.3833 177.788 51.67 184.628 45.97C191.468 40.27 199.448 35.7733 208.568 32.48C217.688 29.06 227.505 27.35 238.018 27.35C248.785 27.35 258.728 28.9967 267.848 32.29C277.095 35.5833 285.075 40.08 291.788 45.78C298.628 51.48 303.948 58.1933 307.748 65.92C311.548 73.6467 313.448 81.9433 313.448 90.81C313.448 99.6767 311.485 107.91 307.558 115.51C303.758 123.11 298.502 129.697 291.788 135.27C285.075 140.843 277.095 145.213 267.848 148.38C258.602 151.547 248.658 153.13 238.018 153.13C227.505 153.13 217.688 151.547 208.568 148.38C199.448 145.213 191.468 140.843 184.628 135.27C177.788 129.697 172.405 123.11 168.478 115.51C164.551 107.91 162.588 99.6767 162.588 90.81ZM190.708 90.81C190.708 96.13 191.911 101.197 194.318 106.01C196.851 110.697 200.271 114.813 204.578 118.36C208.885 121.78 213.825 124.567 219.398 126.72C225.098 128.747 231.178 129.76 237.638 129.76C244.225 129.76 250.432 128.81 256.258 126.91C262.085 124.883 267.152 122.16 271.458 118.74C275.892 115.32 279.375 111.267 281.908 106.58C284.442 101.767 285.708 96.51 285.708 90.81C285.708 85.49 284.505 80.4233 282.098 75.61C279.692 70.67 276.335 66.3633 272.028 62.69C267.722 59.0167 262.655 56.1033 256.828 53.95C251.128 51.7967 244.858 50.72 238.018 50.72C231.432 50.72 225.225 51.7967 219.398 53.95C213.698 56.1033 208.695 59.08 204.388 62.88C200.208 66.5533 196.851 70.7967 194.318 75.61C191.911 80.4233 190.708 85.49 190.708 90.81ZM327.91 90.81C327.91 82.07 329.874 73.8367 333.8 66.11C337.727 58.3833 343.11 51.67 349.95 45.97C356.79 40.27 364.77 35.7733 373.89 32.48C383.01 29.06 392.827 27.35 403.34 27.35C414.107 27.35 424.05 28.9967 433.17 32.29C442.417 35.5833 450.397 40.08 457.11 45.78C463.95 51.48 469.27 58.1933 473.07 65.92C476.87 73.6467 478.77 81.9433 478.77 90.81C478.77 99.6767 476.807 107.91 472.88 115.51C469.08 123.11 463.824 129.697 457.11 135.27C450.397 140.843 442.417 145.213 433.17 148.38C423.924 151.547 413.98 153.13 403.34 153.13C392.827 153.13 383.01 151.547 373.89 148.38C364.77 145.213 356.79 140.843 349.95 135.27C343.11 129.697 337.727 123.11 333.8 115.51C329.874 107.91 327.91 99.6767 327.91 90.81ZM356.03 90.81C356.03 96.13 357.234 101.197 359.64 106.01C362.174 110.697 365.594 114.813 369.9 118.36C374.207 121.78 379.147 124.567 384.72 126.72C390.42 128.747 396.5 129.76 402.96 129.76C409.547 129.76 415.754 128.81 421.58 126.91C427.407 124.883 432.474 122.16 436.78 118.74C441.214 115.32 444.697 111.267 447.23 106.58C449.764 101.767 451.03 96.51 451.03 90.81C451.03 85.49 449.827 80.4233 447.42 75.61C445.014 70.67 441.657 66.3633 437.35 62.69C433.044 59.0167 427.977 56.1033 422.15 53.95C416.45 51.7967 410.18 50.72 403.34 50.72C396.754 50.72 390.547 51.7967 384.72 53.95C379.02 56.1033 374.017 59.08 369.71 62.88C365.53 66.5533 362.174 70.7967 359.64 75.61C357.234 80.4233 356.03 85.49 356.03 90.81ZM527.623 32.29V87.2L584.053 32.29H620.723L562.773 89.67L620.723 148H584.053L527.623 93.09V148H496.653V32.29H527.623Z" fill="#F14A16"/>
<path d="M21.8605 68.58L19.1109 67.3802L19.1017 67.4013L19.0928 67.4226L21.8605 68.58ZM34.5905 50.15L36.6867 52.2961L36.6873 52.2956L34.5905 50.15ZM54.5405 37.23L55.6782 40.0059L55.6895 40.0013L55.7007 39.9966L54.5405 37.23ZM148.971 32.29H151.971V29.29H148.971V32.29ZM148.971 52.62V55.62H151.971V52.62H148.971ZM69.1705 55.85L70.4793 58.5494L70.4958 58.5415L70.5121 58.5333L69.1705 55.85ZM57.3905 64.21L55.3067 62.0518L55.2878 62.0701L55.2692 62.0887L57.3905 64.21ZM48.4605 76.37L45.8074 74.9697L45.7999 74.9838L45.7926 74.998L48.4605 76.37ZM48.4605 103.92L45.7772 105.262L45.7848 105.277L45.7926 105.292L48.4605 103.92ZM57.2005 115.89L55.0792 118.011L55.0978 118.03L55.1167 118.048L57.2005 115.89ZM148.971 127.67H151.971V124.67H148.971V127.67ZM148.971 148V151H151.971V148H148.971ZM53.2105 142.87L51.959 145.596L51.9776 145.605L51.9963 145.613L53.2105 142.87ZM33.6405 129.19L35.8106 127.119L35.8106 127.119L33.6405 129.19ZM21.4805 110.57L18.6845 111.657L18.6932 111.68L18.7022 111.702L21.4805 110.57ZM20.4905 90.24C20.4905 83.1683 21.8666 76.3414 24.6282 69.7374L19.0928 67.4226C16.0278 74.7519 14.4905 82.365 14.4905 90.24H20.4905ZM24.6101 69.7798C27.4951 63.1684 31.5164 57.3462 36.6867 52.2961L32.4943 48.0039C26.7713 53.5938 22.3059 60.0583 19.1109 67.3802L24.6101 69.7798ZM36.6873 52.2956C41.9652 47.1376 48.283 43.0367 55.6782 40.0059L53.4028 34.4541C45.3447 37.7566 38.3625 42.269 32.4937 48.0044L36.6873 52.2956ZM55.7007 39.9966C63.1464 36.8742 71.4228 35.29 80.5705 35.29V29.29C70.7182 29.29 61.6413 30.9991 53.3803 34.4634L55.7007 39.9966ZM80.5705 35.29H148.971V29.29H80.5705V35.29ZM145.971 32.29V52.62H151.971V32.29H145.971ZM148.971 49.62H81.3305V55.62H148.971V49.62ZM81.3305 49.62C76.9572 49.62 72.4439 50.8592 67.8289 53.1667L70.5121 58.5333C74.5105 56.5341 78.1038 55.62 81.3305 55.62V49.62ZM67.8617 53.1506C63.3696 55.3286 59.1857 58.3066 55.3067 62.0518L59.4743 66.3682C62.942 63.0201 66.6114 60.4248 70.4793 58.5494L67.8617 53.1506ZM55.2692 62.0887C51.5042 65.8536 48.3502 70.1516 45.8074 74.9697L51.1137 77.7703C53.3841 73.4684 56.1835 69.6597 59.5118 66.3313L55.2692 62.0887ZM45.7926 74.998C43.3087 79.8279 42.0405 84.8558 42.0405 90.05H48.0405C48.0405 85.8709 49.0524 81.7787 51.1284 77.742L45.7926 74.998ZM42.0405 90.05C42.0405 95.2423 43.3076 100.322 45.7772 105.262L51.1438 102.578C49.0534 98.3977 48.0405 94.231 48.0405 90.05H42.0405ZM45.7926 105.292C48.2158 110.004 51.314 114.246 55.0792 118.011L59.3218 113.769C55.9937 110.441 53.2653 106.703 51.1284 102.548L45.7926 105.292ZM55.1167 118.048C59.0094 121.807 63.3217 124.842 68.0498 127.139L70.6712 121.741C66.5326 119.731 62.7383 117.067 59.2843 113.732L55.1167 118.048ZM68.0498 127.139C72.8455 129.468 77.7245 130.67 82.6605 130.67V124.67C78.7299 124.67 74.7422 123.719 70.6712 121.741L68.0498 127.139ZM82.6605 130.67H148.971V124.67H82.6605V130.67ZM145.971 127.67V148H151.971V127.67H145.971ZM148.971 145H80.0005V151H148.971V145ZM80.0005 145C70.2035 145 61.7006 143.347 54.4248 140.127L51.9963 145.613C60.1737 149.233 69.5308 151 80.0005 151V145ZM54.462 140.144C47.0445 136.739 40.8427 132.39 35.8106 127.119L31.4704 131.261C37.0783 137.136 43.9232 141.908 51.959 145.596L54.462 140.144ZM35.8106 127.119C30.7391 121.806 26.8973 115.915 24.2588 109.438L18.7022 111.702C21.637 118.905 25.902 125.428 31.4704 131.261L35.8106 127.119ZM24.2765 109.483C21.7387 102.957 20.4905 96.5481 20.4905 90.24H14.4905C14.4905 97.3585 15.9023 104.503 18.6845 111.657L24.2765 109.483ZM168.478 66.11L165.804 64.7508L165.804 64.7508L168.478 66.11ZM184.628 45.97L186.549 48.2747L186.549 48.2747L184.628 45.97ZM208.568 32.48L209.587 35.3017L209.604 35.2954L209.622 35.289L208.568 32.48ZM267.848 32.29L266.829 35.1117L266.842 35.1161L267.848 32.29ZM291.788 45.78L289.846 48.0669L289.857 48.0758L289.868 48.0847L291.788 45.78ZM307.748 65.92L310.44 64.596L310.44 64.596L307.748 65.92ZM307.558 115.51L304.893 114.133L304.884 114.151L304.875 114.168L307.558 115.51ZM291.788 135.27L293.704 137.578L293.704 137.578L291.788 135.27ZM267.848 148.38L266.876 145.542L266.876 145.542L267.848 148.38ZM208.568 148.38L207.584 151.214L207.584 151.214L208.568 148.38ZM184.628 135.27L186.523 132.944L186.523 132.944L184.628 135.27ZM168.478 115.51L171.143 114.133L171.143 114.133L168.478 115.51ZM194.318 106.01L191.635 107.352L191.656 107.394L191.679 107.437L194.318 106.01ZM204.578 118.36L202.671 120.676L202.692 120.693L202.713 120.709L204.578 118.36ZM219.398 126.72L218.317 129.518L218.355 129.533L218.393 129.547L219.398 126.72ZM256.258 126.91L257.188 129.762L257.216 129.753L257.244 129.743L256.258 126.91ZM271.458 118.74L269.626 116.365L269.609 116.378L269.593 116.391L271.458 118.74ZM281.908 106.58L284.547 108.007L284.555 107.992L284.563 107.977L281.908 106.58ZM282.098 75.61L279.401 76.9239L279.408 76.9378L279.415 76.9516L282.098 75.61ZM272.028 62.69L273.975 60.4075L273.975 60.4075L272.028 62.69ZM256.828 53.95L255.768 56.7564L255.778 56.7602L255.788 56.764L256.828 53.95ZM219.398 53.95L218.358 51.136L218.348 51.1398L218.338 51.1436L219.398 53.95ZM204.388 62.88L206.369 65.1335L206.373 65.1295L204.388 62.88ZM194.318 75.61L191.663 74.2128L191.649 74.2404L191.635 74.2684L194.318 75.61ZM165.588 90.81C165.588 82.5382 167.442 74.771 171.153 67.4691L165.804 64.7508C161.661 72.9023 159.588 81.6018 159.588 90.81H165.588ZM171.153 67.4691C174.89 60.1156 180.013 53.7212 186.549 48.2747L182.708 43.6653C175.563 49.6188 169.92 56.6511 165.804 64.7508L171.153 67.4691ZM186.549 48.2747C193.098 42.8172 200.766 38.487 209.587 35.3017L207.549 29.6583C198.13 33.0597 189.839 37.7228 182.708 43.6653L186.549 48.2747ZM209.622 35.289C218.379 32.005 227.836 30.35 238.018 30.35V24.35C227.174 24.35 216.997 26.115 207.515 29.671L209.622 35.289ZM238.018 30.35C248.476 30.35 258.07 31.9486 266.829 35.1117L268.867 29.4683C259.386 26.0447 249.094 24.35 238.018 24.35V30.35ZM266.842 35.1161C275.786 38.3016 283.44 42.6271 289.846 48.0669L293.73 43.4931C286.71 37.5329 278.404 32.8651 268.855 29.4639L266.842 35.1161ZM289.868 48.0847C296.396 53.5248 301.448 59.9076 305.056 67.244L310.44 64.596C306.448 56.4791 300.861 49.4352 293.709 43.4753L289.868 48.0847ZM305.056 67.244C308.647 74.5462 310.448 82.3883 310.448 90.81H316.448C316.448 81.4984 314.449 72.7471 310.44 64.596L305.056 67.244ZM310.448 90.81C310.448 99.2156 308.591 106.974 304.893 114.133L310.223 116.887C314.378 108.846 316.448 100.138 316.448 90.81H310.448ZM304.875 114.168C301.266 121.386 296.274 127.647 289.872 132.962L293.704 137.578C300.729 131.747 306.25 124.834 310.241 116.852L304.875 114.168ZM289.872 132.962C283.47 138.276 275.82 142.479 266.876 145.542L268.82 151.218C278.37 147.948 286.679 143.41 293.704 137.578L289.872 132.962ZM266.876 145.542C257.969 148.592 248.357 150.13 238.018 150.13V156.13C248.96 156.13 259.234 154.501 268.82 151.218L266.876 145.542ZM238.018 150.13C227.81 150.13 218.329 148.593 209.552 145.546L207.584 151.214C217.048 154.5 227.2 156.13 238.018 156.13V150.13ZM209.552 145.546C200.732 142.483 193.067 138.276 186.523 132.944L182.733 137.596C189.869 143.41 198.164 147.943 207.584 151.214L209.552 145.546ZM186.523 132.944C179.992 127.623 174.875 121.356 171.143 114.133L165.813 116.887C169.934 124.864 175.584 131.771 182.733 137.596L186.523 132.944ZM171.143 114.133C167.445 106.974 165.588 99.2156 165.588 90.81H159.588C159.588 100.138 161.658 108.846 165.813 116.887L171.143 114.133ZM187.708 90.81C187.708 96.6013 189.022 102.127 191.635 107.352L197.001 104.668C194.801 100.267 193.708 95.6587 193.708 90.81H187.708ZM191.679 107.437C194.405 112.48 198.08 116.895 202.671 120.676L206.485 116.044C202.463 112.732 199.298 108.913 196.957 104.583L191.679 107.437ZM202.713 120.709C207.276 124.333 212.485 127.265 218.317 129.518L220.479 123.922C215.164 121.868 210.494 119.227 206.444 116.011L202.713 120.709ZM218.393 129.547C224.437 131.696 230.859 132.76 237.638 132.76V126.76C231.497 126.76 225.759 125.798 220.403 123.893L218.393 129.547ZM237.638 132.76C244.517 132.76 251.04 131.767 257.188 129.762L255.328 124.058C249.823 125.853 243.933 126.76 237.638 126.76V132.76ZM257.244 129.743C263.35 127.619 268.723 124.743 273.324 121.089L269.593 116.391C265.58 119.577 260.819 122.147 255.273 124.077L257.244 129.743ZM273.291 121.115C278.039 117.452 281.804 113.081 284.547 108.007L279.269 105.153C276.945 109.452 273.744 113.188 269.626 116.365L273.291 121.115ZM284.563 107.977C287.334 102.712 288.708 96.9728 288.708 90.81H282.708C282.708 96.0472 281.549 100.821 279.253 105.183L284.563 107.977ZM288.708 90.81C288.708 85.0187 287.394 79.4933 284.781 74.2684L279.415 76.9516C281.616 81.3534 282.708 85.9613 282.708 90.81H288.708ZM284.795 74.2961C282.202 68.9738 278.586 64.3404 273.975 60.4075L270.081 64.9725C274.084 68.3863 277.181 72.3662 279.401 76.9239L284.795 74.2961ZM273.975 60.4075C269.375 56.4837 263.994 53.3998 257.868 51.136L255.788 56.764C261.316 58.8068 266.068 61.5496 270.081 64.9725L273.975 60.4075ZM257.888 51.1436C251.811 48.8475 245.176 47.72 238.018 47.72V53.72C244.54 53.72 250.446 54.7458 255.768 56.7564L257.888 51.1436ZM238.018 47.72C231.098 47.72 224.537 48.8524 218.358 51.136L220.438 56.764C225.912 54.741 231.765 53.72 238.018 53.72V47.72ZM218.338 51.1436C212.319 53.4172 206.998 56.5761 202.403 60.6305L206.373 65.1295C210.391 61.5838 215.077 58.7894 220.458 56.7564L218.338 51.1436ZM202.408 60.6265C197.959 64.536 194.371 69.0677 191.663 74.2128L196.973 77.0072C199.332 72.5256 202.457 68.5707 206.369 65.1335L202.408 60.6265ZM191.635 74.2684C189.022 79.4933 187.708 85.0187 187.708 90.81H193.708C193.708 85.9613 194.801 81.3534 197.001 76.9516L191.635 74.2684ZM333.8 66.11L331.126 64.7508L331.126 64.7508L333.8 66.11ZM349.95 45.97L351.871 48.2747L351.871 48.2747L349.95 45.97ZM373.89 32.48L374.909 35.3017L374.927 35.2954L374.944 35.289L373.89 32.48ZM433.17 32.29L432.151 35.1117L432.164 35.1161L433.17 32.29ZM457.11 45.78L455.169 48.0669L455.179 48.0758L455.19 48.0847L457.11 45.78ZM473.07 65.92L475.762 64.596L475.762 64.596L473.07 65.92ZM472.88 115.51L470.215 114.133L470.206 114.151L470.197 114.168L472.88 115.51ZM457.11 135.27L459.027 137.578L459.027 137.578L457.11 135.27ZM433.17 148.38L432.198 145.542L432.198 145.542L433.17 148.38ZM373.89 148.38L372.906 151.214L372.906 151.214L373.89 148.38ZM349.95 135.27L351.845 132.944L351.845 132.944L349.95 135.27ZM333.8 115.51L336.466 114.133L336.466 114.133L333.8 115.51ZM359.64 106.01L356.957 107.352L356.979 107.394L357.001 107.437L359.64 106.01ZM369.9 118.36L367.993 120.676L368.014 120.693L368.035 120.709L369.9 118.36ZM384.72 126.72L383.639 129.518L383.677 129.533L383.715 129.547L384.72 126.72ZM421.58 126.91L422.51 129.762L422.538 129.753L422.566 129.743L421.58 126.91ZM436.78 118.74L434.948 116.365L434.931 116.378L434.915 116.391L436.78 118.74ZM447.23 106.58L449.87 108.007L449.877 107.992L449.885 107.977L447.23 106.58ZM447.42 75.61L444.723 76.9239L444.73 76.9378L444.737 76.9516L447.42 75.61ZM437.35 62.69L439.297 60.4075L439.297 60.4075L437.35 62.69ZM422.15 53.95L421.09 56.7564L421.1 56.7602L421.11 56.764L422.15 53.95ZM384.72 53.95L383.68 51.136L383.67 51.1398L383.66 51.1436L384.72 53.95ZM369.71 62.88L371.691 65.1335L371.695 65.1295L369.71 62.88ZM359.64 75.61L356.986 74.2128L356.971 74.2404L356.957 74.2684L359.64 75.61ZM330.91 90.81C330.91 82.5382 332.764 74.771 336.475 67.4691L331.126 64.7508C326.983 72.9023 324.91 81.6018 324.91 90.81H330.91ZM336.475 67.4691C340.212 60.1156 345.335 53.7212 351.871 48.2747L348.03 43.6653C340.886 49.6188 335.242 56.6511 331.126 64.7508L336.475 67.4691ZM351.871 48.2747C358.42 42.8172 366.088 38.487 374.909 35.3017L372.871 29.6583C363.452 33.0597 355.161 37.7228 348.03 43.6653L351.871 48.2747ZM374.944 35.289C383.701 32.005 393.158 30.35 403.34 30.35V24.35C392.496 24.35 382.32 26.115 372.837 29.671L374.944 35.289ZM403.34 30.35C413.798 30.35 423.392 31.9486 432.151 35.1117L434.189 29.4683C424.709 26.0447 414.416 24.35 403.34 24.35V30.35ZM432.164 35.1161C441.108 38.3016 448.762 42.6271 455.169 48.0669L459.052 43.4931C452.032 37.5329 443.726 32.8651 434.177 29.4639L432.164 35.1161ZM455.19 48.0847C461.718 53.5248 466.77 59.9076 470.378 67.244L475.762 64.596C471.771 56.4791 466.183 49.4352 459.031 43.4753L455.19 48.0847ZM470.378 67.244C473.97 74.5462 475.77 82.3883 475.77 90.81H481.77C481.77 81.4984 479.771 72.7471 475.762 64.596L470.378 67.244ZM475.77 90.81C475.77 99.2156 473.914 106.974 470.215 114.133L475.546 116.887C479.7 108.846 481.77 100.138 481.77 90.81H475.77ZM470.197 114.168C466.588 121.386 461.596 127.647 455.194 132.962L459.027 137.578C466.051 131.747 471.573 124.834 475.564 116.852L470.197 114.168ZM455.194 132.962C448.792 138.276 441.142 142.479 432.198 145.542L434.142 151.218C443.692 147.948 452.002 143.41 459.027 137.578L455.194 132.962ZM432.198 145.542C423.291 148.592 413.679 150.13 403.34 150.13V156.13C414.282 156.13 424.556 154.501 434.142 151.218L432.198 145.542ZM403.34 150.13C393.132 150.13 383.651 148.593 374.874 145.546L372.906 151.214C382.37 154.5 392.522 156.13 403.34 156.13V150.13ZM374.874 145.546C366.054 142.483 358.389 138.276 351.845 132.944L348.055 137.596C355.191 143.41 363.487 147.943 372.906 151.214L374.874 145.546ZM351.845 132.944C345.314 127.623 340.197 121.356 336.466 114.133L331.135 116.887C335.257 124.864 340.907 131.771 348.055 137.596L351.845 132.944ZM336.466 114.133C332.767 106.974 330.91 99.2156 330.91 90.81H324.91C324.91 100.138 326.98 108.846 331.135 116.887L336.466 114.133ZM353.03 90.81C353.03 96.6013 354.345 102.127 356.957 107.352L362.324 104.668C360.123 100.267 359.03 95.6587 359.03 90.81H353.03ZM357.001 107.437C359.728 112.48 363.402 116.895 367.993 120.676L371.808 116.044C367.786 112.732 364.62 108.913 362.28 104.583L357.001 107.437ZM368.035 120.709C372.598 124.333 377.808 127.265 383.639 129.518L385.802 123.922C380.487 121.868 375.816 119.227 371.766 116.011L368.035 120.709ZM383.715 129.547C389.759 131.696 396.181 132.76 402.96 132.76V126.76C396.82 126.76 391.082 125.798 385.725 123.893L383.715 129.547ZM402.96 132.76C409.839 132.76 416.362 131.767 422.51 129.762L420.65 124.058C415.146 125.853 409.255 126.76 402.96 126.76V132.76ZM422.566 129.743C428.673 127.619 434.045 124.743 438.646 121.089L434.915 116.391C430.902 119.577 426.141 122.147 420.595 124.077L422.566 129.743ZM438.613 121.115C443.361 117.452 447.127 113.081 449.87 108.007L444.591 105.153C442.268 109.452 439.066 113.188 434.948 116.365L438.613 121.115ZM449.885 107.977C452.656 102.712 454.03 96.9728 454.03 90.81H448.03C448.03 96.0472 446.871 100.821 444.576 105.183L449.885 107.977ZM454.03 90.81C454.03 85.0187 452.716 79.4933 450.104 74.2684L444.737 76.9516C446.938 81.3534 448.03 85.9613 448.03 90.81H454.03ZM450.117 74.2961C447.524 68.9738 443.908 64.3404 439.297 60.4075L435.404 64.9725C439.406 68.3863 442.503 72.3662 444.723 76.9239L450.117 74.2961ZM439.297 60.4075C434.697 56.4837 429.316 53.3998 423.19 51.136L421.11 56.764C426.638 58.8068 431.391 61.5496 435.404 64.9725L439.297 60.4075ZM423.211 51.1436C417.133 48.8475 410.499 47.72 403.34 47.72V53.72C409.862 53.72 415.768 54.7458 421.09 56.7564L423.211 51.1436ZM403.34 47.72C396.42 47.72 389.86 48.8524 383.68 51.136L385.76 56.764C391.234 54.741 397.087 53.72 403.34 53.72V47.72ZM383.66 51.1436C377.642 53.4172 372.32 56.5761 367.726 60.6305L371.695 65.1295C375.714 61.5838 380.399 58.7894 385.781 56.7564L383.66 51.1436ZM367.73 60.6265C363.281 64.536 359.694 69.0677 356.986 74.2128L362.295 77.0072C364.654 72.5256 367.78 68.5707 371.691 65.1335L367.73 60.6265ZM356.957 74.2684C354.345 79.4933 353.03 85.0187 353.03 90.81H359.03C359.03 85.9613 360.123 81.3534 362.324 76.9516L356.957 74.2684ZM527.623 32.29H530.623V29.29H527.623V32.29ZM527.623 87.2H524.623V94.3051L529.715 89.3501L527.623 87.2ZM584.053 32.29V29.29H582.834L581.961 30.1399L584.053 32.29ZM620.723 32.29L622.834 34.4218L628.016 29.29H620.723V32.29ZM562.773 89.67L560.662 87.5382L558.527 89.6526L560.644 91.7844L562.773 89.67ZM620.723 148V151H627.932L622.851 145.886L620.723 148ZM584.053 148L581.961 150.15L582.834 151H584.053V148ZM527.623 93.09L529.715 90.9399L524.623 85.9849V93.09H527.623ZM527.623 148V151H530.623V148H527.623ZM496.653 148H493.653V151H496.653V148ZM496.653 32.29V29.29H493.653V32.29H496.653ZM524.623 32.29V87.2H530.623V32.29H524.623ZM529.715 89.3501L586.145 34.4401L581.961 30.1399L525.531 85.0499L529.715 89.3501ZM584.053 35.29H620.723V29.29H584.053V35.29ZM618.612 30.1582L560.662 87.5382L564.884 91.8018L622.834 34.4218L618.612 30.1582ZM560.644 91.7844L618.594 150.114L622.851 145.886L564.901 87.5556L560.644 91.7844ZM620.723 145H584.053V151H620.723V145ZM586.145 145.85L529.715 90.9399L525.531 95.2401L581.961 150.15L586.145 145.85ZM524.623 93.09V148H530.623V93.09H524.623ZM527.623 145H496.653V151H527.623V145ZM499.653 148V32.29H493.653V148H499.653ZM496.653 35.29H527.623V29.29H496.653V35.29Z" fill="#E14210" mask="url(#path-1-outside-1_34_39)"/>
<mask id="path-3-outside-2_34_39" maskUnits="userSpaceOnUse" x="9" y="190" width="421" height="133" fill="black">
<rect fill="white" x="9" y="190" width="421" height="133"/>
<path d="M12.6507 256.81C12.6507 248.07 14.614 239.837 18.5407 232.11C22.4673 224.383 27.8507 217.67 34.6907 211.97C41.5307 206.27 49.5107 201.773 58.6307 198.48C67.7507 195.06 77.5673 193.35 88.0807 193.35C98.8473 193.35 108.791 194.997 117.911 198.29C127.157 201.583 135.137 206.08 141.851 211.78C148.691 217.48 154.011 224.193 157.811 231.92C161.611 239.647 163.511 247.943 163.511 256.81C163.511 265.677 161.547 273.91 157.621 281.51C153.821 289.11 148.564 295.697 141.851 301.27C135.137 306.843 127.157 311.213 117.911 314.38C108.664 317.547 98.7207 319.13 88.0807 319.13C77.5673 319.13 67.7507 317.547 58.6307 314.38C49.5107 311.213 41.5307 306.843 34.6907 301.27C27.8507 295.697 22.4673 289.11 18.5407 281.51C14.614 273.91 12.6507 265.677 12.6507 256.81ZM40.7707 256.81C40.7707 262.13 41.974 267.197 44.3807 272.01C46.914 276.697 50.334 280.813 54.6407 284.36C58.9473 287.78 63.8873 290.567 69.4607 292.72C75.1607 294.747 81.2407 295.76 87.7007 295.76C94.2873 295.76 100.494 294.81 106.321 292.91C112.147 290.883 117.214 288.16 121.521 284.74C125.954 281.32 129.437 277.267 131.971 272.58C134.504 267.767 135.771 262.51 135.771 256.81C135.771 251.49 134.567 246.423 132.161 241.61C129.754 236.67 126.397 232.363 122.091 228.69C117.784 225.017 112.717 222.103 106.891 219.95C101.191 217.797 94.9207 216.72 88.0807 216.72C81.494 216.72 75.2873 217.797 69.4607 219.95C63.7607 222.103 58.7573 225.08 54.4507 228.88C50.2707 232.553 46.914 236.797 44.3807 241.61C41.974 246.423 40.7707 251.49 40.7707 256.81ZM181.393 314V242.94H283.233V263.08H212.363V314H181.393ZM181.393 198.29H293.493V218.62H181.393V198.29ZM314.801 314V242.94H416.641V263.08H345.771V314H314.801ZM314.801 198.29H426.901V218.62H314.801V198.29Z"/>
</mask>
<path d="M12.6507 256.81C12.6507 248.07 14.614 239.837 18.5407 232.11C22.4673 224.383 27.8507 217.67 34.6907 211.97C41.5307 206.27 49.5107 201.773 58.6307 198.48C67.7507 195.06 77.5673 193.35 88.0807 193.35C98.8473 193.35 108.791 194.997 117.911 198.29C127.157 201.583 135.137 206.08 141.851 211.78C148.691 217.48 154.011 224.193 157.811 231.92C161.611 239.647 163.511 247.943 163.511 256.81C163.511 265.677 161.547 273.91 157.621 281.51C153.821 289.11 148.564 295.697 141.851 301.27C135.137 306.843 127.157 311.213 117.911 314.38C108.664 317.547 98.7207 319.13 88.0807 319.13C77.5673 319.13 67.7507 317.547 58.6307 314.38C49.5107 311.213 41.5307 306.843 34.6907 301.27C27.8507 295.697 22.4673 289.11 18.5407 281.51C14.614 273.91 12.6507 265.677 12.6507 256.81ZM40.7707 256.81C40.7707 262.13 41.974 267.197 44.3807 272.01C46.914 276.697 50.334 280.813 54.6407 284.36C58.9473 287.78 63.8873 290.567 69.4607 292.72C75.1607 294.747 81.2407 295.76 87.7007 295.76C94.2873 295.76 100.494 294.81 106.321 292.91C112.147 290.883 117.214 288.16 121.521 284.74C125.954 281.32 129.437 277.267 131.971 272.58C134.504 267.767 135.771 262.51 135.771 256.81C135.771 251.49 134.567 246.423 132.161 241.61C129.754 236.67 126.397 232.363 122.091 228.69C117.784 225.017 112.717 222.103 106.891 219.95C101.191 217.797 94.9207 216.72 88.0807 216.72C81.494 216.72 75.2873 217.797 69.4607 219.95C63.7607 222.103 58.7573 225.08 54.4507 228.88C50.2707 232.553 46.914 236.797 44.3807 241.61C41.974 246.423 40.7707 251.49 40.7707 256.81ZM181.393 314V242.94H283.233V263.08H212.363V314H181.393ZM181.393 198.29H293.493V218.62H181.393V198.29ZM314.801 314V242.94H416.641V263.08H345.771V314H314.801ZM314.801 198.29H426.901V218.62H314.801V198.29Z" fill="#F14A16"/>
<path d="M18.5407 232.11L15.8662 230.751L15.8662 230.751L18.5407 232.11ZM34.6907 211.97L36.6112 214.275L36.6112 214.275L34.6907 211.97ZM58.6307 198.48L59.6496 201.302L59.6669 201.295L59.684 201.289L58.6307 198.48ZM117.911 198.29L116.892 201.112L116.904 201.116L117.911 198.29ZM141.851 211.78L139.909 214.067L139.92 214.076L139.93 214.085L141.851 211.78ZM157.811 231.92L160.503 230.596L160.503 230.596L157.811 231.92ZM157.621 281.51L154.955 280.133L154.946 280.151L154.937 280.168L157.621 281.51ZM141.851 301.27L143.767 303.578L143.767 303.578L141.851 301.27ZM117.911 314.38L116.939 311.542L116.939 311.542L117.911 314.38ZM58.6307 314.38L57.6466 317.214L57.6466 317.214L58.6307 314.38ZM34.6907 301.27L36.5857 298.944L36.5857 298.944L34.6907 301.27ZM18.5407 281.51L21.2059 280.133L21.2059 280.133L18.5407 281.51ZM44.3807 272.01L41.6974 273.352L41.7188 273.394L41.7415 273.437L44.3807 272.01ZM54.6407 284.36L52.7335 286.676L52.7541 286.693L52.775 286.709L54.6407 284.36ZM69.4607 292.72L68.3795 295.518L68.4174 295.533L68.4556 295.547L69.4607 292.72ZM106.321 292.91L107.251 295.762L107.279 295.753L107.306 295.743L106.321 292.91ZM121.521 284.74L119.688 282.365L119.672 282.378L119.655 282.391L121.521 284.74ZM131.971 272.58L134.61 274.007L134.618 273.992L134.625 273.977L131.971 272.58ZM132.161 241.61L129.464 242.924L129.47 242.938L129.477 242.952L132.161 241.61ZM122.091 228.69L124.038 226.407L124.038 226.407L122.091 228.69ZM106.891 219.95L105.83 222.756L105.841 222.76L105.851 222.764L106.891 219.95ZM69.4607 219.95L68.4207 217.136L68.4106 217.14L68.4005 217.144L69.4607 219.95ZM54.4507 228.88L56.431 231.133L56.4355 231.13L54.4507 228.88ZM44.3807 241.61L41.7259 240.213L41.7114 240.24L41.6974 240.268L44.3807 241.61ZM15.6507 256.81C15.6507 248.538 17.5043 240.771 21.2151 233.469L15.8662 230.751C11.7237 238.902 9.65066 247.602 9.65066 256.81H15.6507ZM21.2151 233.469C24.9522 226.116 30.0753 219.721 36.6112 214.275L32.7701 209.665C25.626 215.619 19.9825 222.651 15.8662 230.751L21.2151 233.469ZM36.6112 214.275C43.1602 208.817 50.8287 204.487 59.6496 201.302L57.6117 195.658C48.1926 199.06 39.9012 203.723 32.7701 209.665L36.6112 214.275ZM59.684 201.289C68.4414 198.005 77.8984 196.35 88.0807 196.35V190.35C77.2363 190.35 67.06 192.115 57.5773 195.671L59.684 201.289ZM88.0807 196.35C98.5381 196.35 108.133 197.949 116.892 201.112L118.93 195.468C109.449 192.045 99.1566 190.35 88.0807 190.35V196.35ZM116.904 201.116C125.848 204.302 133.502 208.627 139.909 214.067L143.792 209.493C136.773 203.533 128.467 198.865 118.917 195.464L116.904 201.116ZM139.93 214.085C146.458 219.525 151.511 225.908 155.119 233.244L160.503 230.596C156.511 222.479 150.923 215.435 143.771 209.475L139.93 214.085ZM155.119 233.244C158.71 240.546 160.511 248.388 160.511 256.81H166.511C166.511 247.498 164.511 238.747 160.503 230.596L155.119 233.244ZM160.511 256.81C160.511 265.216 158.654 272.974 154.955 280.133L160.286 282.887C164.441 274.846 166.511 266.138 166.511 256.81H160.511ZM154.937 280.168C151.328 287.386 146.337 293.647 139.934 298.962L143.767 303.578C150.791 297.747 156.313 290.834 160.304 282.852L154.937 280.168ZM139.934 298.962C133.533 304.276 125.882 308.479 116.939 311.542L118.883 317.218C128.432 313.948 136.742 309.41 143.767 303.578L139.934 298.962ZM116.939 311.542C108.031 314.592 98.4192 316.13 88.0807 316.13V322.13C99.0221 322.13 109.297 320.501 118.883 317.218L116.939 311.542ZM88.0807 316.13C77.8725 316.13 68.3913 314.593 59.6147 311.546L57.6466 317.214C67.11 320.5 77.2621 322.13 88.0807 322.13V316.13ZM59.6147 311.546C50.7946 308.483 43.1296 304.276 36.5857 298.944L32.7956 303.596C39.9317 309.41 48.2268 313.943 57.6466 317.214L59.6147 311.546ZM36.5857 298.944C30.0545 293.623 24.9377 287.356 21.2059 280.133L15.8754 282.887C19.997 290.864 25.6468 297.771 32.7956 303.596L36.5857 298.944ZM21.2059 280.133C17.5074 272.974 15.6507 265.216 15.6507 256.81H9.65066C9.65066 266.138 11.7206 274.846 15.8754 282.887L21.2059 280.133ZM37.7707 256.81C37.7707 262.601 39.0849 268.127 41.6974 273.352L47.0639 270.668C44.8631 266.267 43.7707 261.659 43.7707 256.81H37.7707ZM41.7415 273.437C44.4678 278.48 48.1421 282.895 52.7335 286.676L56.5478 282.044C52.5259 278.732 49.3602 274.913 47.0198 270.583L41.7415 273.437ZM52.775 286.709C57.3386 290.333 62.5478 293.265 68.3795 295.518L70.5419 289.922C65.2269 287.868 60.5561 285.227 56.5063 282.011L52.775 286.709ZM68.4556 295.547C74.4996 297.696 80.9216 298.76 87.7007 298.76V292.76C81.5598 292.76 75.8217 291.798 70.4657 289.893L68.4556 295.547ZM87.7007 298.76C94.5796 298.76 101.102 297.767 107.251 295.762L105.391 290.058C99.8859 291.853 93.9951 292.76 87.7007 292.76V298.76ZM107.306 295.743C113.413 293.619 118.786 290.743 123.386 287.089L119.655 282.391C115.642 285.577 110.882 288.147 105.335 290.077L107.306 295.743ZM123.353 287.115C128.101 283.452 131.867 279.081 134.61 274.007L129.332 271.153C127.008 275.452 123.807 279.188 119.688 282.365L123.353 287.115ZM134.625 273.977C137.396 268.712 138.771 262.973 138.771 256.81H132.771C132.771 262.047 131.612 266.821 129.316 271.183L134.625 273.977ZM138.771 256.81C138.771 251.019 137.456 245.493 134.844 240.268L129.477 242.952C131.678 247.353 132.771 251.961 132.771 256.81H138.771ZM134.858 240.296C132.265 234.974 128.648 230.34 124.038 226.407L120.144 230.972C124.146 234.386 127.243 238.366 129.464 242.924L134.858 240.296ZM124.038 226.407C119.437 222.484 114.056 219.4 107.931 217.136L105.851 222.764C111.378 224.807 116.131 227.55 120.144 230.972L124.038 226.407ZM107.951 217.144C101.873 214.848 95.2388 213.72 88.0807 213.72V219.72C94.6026 219.72 100.508 220.746 105.83 222.756L107.951 217.144ZM88.0807 213.72C81.1607 213.72 74.6 214.852 68.4207 217.136L70.5006 222.764C75.9747 220.741 81.8273 219.72 88.0807 219.72V213.72ZM68.4005 217.144C62.382 219.417 57.0607 222.576 52.4658 226.63L56.4355 231.13C60.454 227.584 65.1394 224.789 70.5209 222.756L68.4005 217.144ZM52.4703 226.627C48.0216 230.536 44.4338 235.068 41.7259 240.213L47.0354 243.007C49.3942 238.526 52.5197 234.571 56.431 231.133L52.4703 226.627ZM41.6974 240.268C39.0849 245.493 37.7707 251.019 37.7707 256.81H43.7707C43.7707 251.961 44.8631 247.353 47.0639 242.952L41.6974 240.268ZM181.393 314H178.393V317H181.393V314ZM181.393 242.94V239.94H178.393V242.94H181.393ZM283.233 242.94H286.233V239.94H283.233V242.94ZM283.233 263.08V266.08H286.233V263.08H283.233ZM212.363 263.08V260.08H209.363V263.08H212.363ZM212.363 314V317H215.363V314H212.363ZM181.393 198.29V195.29H178.393V198.29H181.393ZM293.493 198.29H296.493V195.29H293.493V198.29ZM293.493 218.62V221.62H296.493V218.62H293.493ZM181.393 218.62H178.393V221.62H181.393V218.62ZM184.393 314V242.94H178.393V314H184.393ZM181.393 245.94H283.233V239.94H181.393V245.94ZM280.233 242.94V263.08H286.233V242.94H280.233ZM283.233 260.08H212.363V266.08H283.233V260.08ZM209.363 263.08V314H215.363V263.08H209.363ZM212.363 311H181.393V317H212.363V311ZM181.393 201.29H293.493V195.29H181.393V201.29ZM290.493 198.29V218.62H296.493V198.29H290.493ZM293.493 215.62H181.393V221.62H293.493V215.62ZM184.393 218.62V198.29H178.393V218.62H184.393ZM314.801 314H311.801V317H314.801V314ZM314.801 242.94V239.94H311.801V242.94H314.801ZM416.641 242.94H419.641V239.94H416.641V242.94ZM416.641 263.08V266.08H419.641V263.08H416.641ZM345.771 263.08V260.08H342.771V263.08H345.771ZM345.771 314V317H348.771V314H345.771ZM314.801 198.29V195.29H311.801V198.29H314.801ZM426.901 198.29H429.901V195.29H426.901V198.29ZM426.901 218.62V221.62H429.901V218.62H426.901ZM314.801 218.62H311.801V221.62H314.801V218.62ZM317.801 314V242.94H311.801V314H317.801ZM314.801 245.94H416.641V239.94H314.801V245.94ZM413.641 242.94V263.08H419.641V242.94H413.641ZM416.641 260.08H345.771V266.08H416.641V260.08ZM342.771 263.08V314H348.771V263.08H342.771ZM345.771 311H314.801V317H345.771V311ZM314.801 201.29H426.901V195.29H314.801V201.29ZM423.901 198.29V218.62H429.901V198.29H423.901ZM426.901 215.62H314.801V221.62H426.901V215.62ZM317.801 218.62V198.29H311.801V218.62H317.801Z" fill="#E14210" mask="url(#path-3-outside-2_34_39)"/>
</g>
<g filter="url(#filter1_d_34_39)">
<path d="M241.615 403.752C241.615 395.048 243.587 386.956 247.531 379.476C251.475 371.86 256.915 365.264 263.851 359.688C270.787 354.112 279.015 349.692 288.535 346.428C298.055 343.164 308.459 341.532 319.747 341.532H325.255C335.999 341.532 345.519 343.436 353.815 347.244C362.247 350.916 369.319 355.744 375.031 361.728C380.743 367.712 385.027 374.376 387.883 381.72C390.875 389.064 392.371 396.34 392.371 403.548C392.371 412.252 390.399 420.412 386.455 428.028C382.511 435.508 377.071 442.104 370.135 447.816C363.199 453.392 354.903 457.812 345.247 461.076C335.727 464.204 325.391 465.768 314.239 465.768H241.615V443.94H323.827C326.819 443.94 330.015 443.26 333.415 441.9C336.815 440.404 340.079 438.5 343.207 436.188C346.335 433.74 349.259 430.952 351.979 427.824C354.699 424.696 356.943 421.432 358.711 418.032H241.615V403.752ZM361.567 396C360.343 391.784 358.371 387.704 355.651 383.76C352.931 379.816 349.735 376.348 346.063 373.356C342.527 370.364 338.719 367.984 334.639 366.216C330.559 364.312 326.479 363.36 322.399 363.36H309.139C306.011 363.36 302.475 364.244 298.531 366.012C294.587 367.644 290.779 369.956 287.107 372.948C283.571 375.804 280.443 379.204 277.723 383.148C275.003 387.092 273.303 391.376 272.623 396H361.567ZM411.549 443.94H444.801V465.768H411.549V443.94ZM464.057 404.364C464.057 394.98 466.165 386.14 470.381 377.844C474.597 369.548 480.377 362.34 487.721 356.22C495.065 350.1 503.633 345.272 513.425 341.736C523.217 338.064 533.757 336.228 545.045 336.228C556.605 336.228 567.281 337.996 577.073 341.532C587.001 345.068 595.569 349.896 602.777 356.016C610.121 362.136 615.833 369.344 619.913 377.64C623.993 385.936 626.033 394.844 626.033 404.364C626.033 413.884 623.925 422.724 619.709 430.884C615.629 439.044 609.985 446.116 602.777 452.1C595.569 458.084 587.001 462.776 577.073 466.176C567.145 469.576 556.469 471.276 545.045 471.276C533.757 471.276 523.217 469.576 513.425 466.176C503.633 462.776 495.065 458.084 487.721 452.1C480.377 446.116 474.597 439.044 470.381 430.884C466.165 422.724 464.057 413.884 464.057 404.364ZM494.249 404.364C494.249 413.884 497.581 422.18 504.245 429.252L561.773 363.768C556.605 362.136 551.029 361.32 545.045 361.32C537.973 361.32 531.309 362.476 525.053 364.788C518.933 367.1 513.561 370.296 508.937 374.376C504.449 378.32 500.845 382.876 498.125 388.044C495.541 393.212 494.249 398.652 494.249 404.364ZM596.249 404.364C596.249 394.98 592.985 386.616 586.457 379.272L530.153 444.348C534.777 445.572 539.605 446.184 544.637 446.184C551.709 446.184 558.373 445.164 564.629 443.124C570.885 440.948 576.325 438.024 580.949 434.352C585.709 430.68 589.449 426.328 592.169 421.296C594.889 416.128 596.249 410.484 596.249 404.364Z" fill="#F14A16"/>
<path d="M628.94 343.88L627.981 345.607C628.525 344.538 628.94 343.88 628.94 343.88Z" fill="#B7AB98"/>
<path d="M602.738 312.658L604.003 313.69C604.137 313.797 604.292 313.956 604.426 314.063C603.794 313.633 603.237 313.153 602.738 312.658Z" fill="#0D0D0D"/>
<path d="M615.002 316.882C618.39 316.529 621.447 315.032 624.737 314.246C631.414 312.677 639.045 314.177 644.544 318.215C634.429 318.571 624.353 318.946 614.238 319.302C611.876 319.374 610.232 318.676 608.681 317.636L604.579 314.222C607.566 316.247 611.404 317.264 615.002 316.882Z" fill="#0D0D0D"/>
<path d="M604.426 314.063C604.292 313.956 604.137 313.797 604.003 313.69L604.597 314.188C604.521 314.151 604.502 314.099 604.426 314.063Z" fill="#0D0D0D"/>
<path d="M575.105 255.61C575.105 255.61 578.152 250.125 587.401 246.186C596.651 242.247 618.661 247.91 628.005 256.523C637.347 265.136 633.72 274.542 636.81 277.43C639.918 280.284 656.658 286.901 662.324 300.742C667.991 314.583 659.712 321.041 659.714 323.826C659.715 326.611 666.612 336.841 660.552 352.025C654.492 367.209 633.083 360.463 628.101 356.715C624.499 353.968 626.573 348.404 627.98 345.606L628.94 343.88C628.94 343.88 628.525 344.538 627.98 345.606L615.195 368.633C615.195 368.633 604.383 372.511 580.477 360.418C556.57 348.325 548.42 336.083 548.42 336.083L563.368 309.163C563.368 309.163 551.539 299.363 550.243 291.764C548.929 284.197 551.94 268.929 558.045 262.118C564.282 255.328 575.105 255.61 575.105 255.61Z" fill="#B7AB98"/>
<path d="M575.105 255.61C575.105 255.61 578.152 250.125 587.401 246.186C596.651 242.247 618.662 247.91 628.005 256.523C629.348 257.764 630.404 258.996 631.29 260.275C627.299 259.013 622.97 258.532 618.781 258.847C610.822 259.503 603.474 262.979 597.679 267.753C593.38 271.312 589.813 275.821 588.881 281.073C587.948 286.325 590.221 292.336 595.368 295.177C598.439 290.603 601.606 285.946 606.46 282.866C611.259 279.801 618.204 278.703 623.314 281.699C622.287 287.034 617.36 290.765 613.868 295.053C610.375 299.34 608.443 306.042 612.911 309.845C616.956 313.275 623.215 312.021 628.642 311.655C636.909 311.144 645.443 313.546 652.09 318.217C652.021 321.739 647.366 323.674 643.477 323.274C639.587 322.874 635.991 320.987 632.118 320.295C628.244 319.603 623.49 320.675 622.447 324.033C621.907 325.703 622.266 327.931 620.615 328.813C619.307 329.516 617.549 328.849 616.191 328.158C607.815 324.076 599.401 319.975 591.007 315.927C588.655 314.761 586.074 313.572 583.427 313.809C581.199 313.988 579.283 315.173 577.578 316.415C573.275 319.545 569.646 323.467 567.012 327.864C566.523 328.659 566.072 329.557 566.25 330.456C566.408 331.217 566.965 331.868 567.541 332.4C570.784 335.532 575.087 337.543 579.161 339.701C587.997 344.347 596.214 350.023 603.54 356.517C604.308 357.226 605.114 357.954 605.52 358.876C606.063 360.163 605.713 361.581 605.169 362.82C604.251 364.909 602.74 366.672 600.921 368.118C595.673 366.941 588.912 364.657 580.553 360.454C556.647 348.362 548.496 336.12 548.496 336.12L563.444 309.199C563.444 309.199 551.615 299.4 550.32 291.8C549.006 284.234 552.018 268.966 558.121 262.155C564.282 255.328 575.105 255.61 575.105 255.61Z" fill="#A8A094"/>
<path d="M573.487 253.125C575.053 251.088 578.834 246.981 586.164 243.882C594.579 240.316 609.998 243.561 620.247 248.452C624.224 250.35 627.498 252.469 629.954 254.754C636.572 260.868 637.384 267.424 637.93 271.754C638.131 273.22 638.357 275.255 638.817 275.646C639.335 276.107 640.885 277.061 642.568 278.036C649.228 281.985 660.347 288.533 665.023 299.888C669.661 311.225 665.675 318.232 663.55 322.058C663.173 322.735 662.704 323.582 662.611 323.923C662.69 324.304 663.002 325.309 663.294 326.091C664.929 330.726 668.277 340.377 663.246 352.925C661.301 357.822 657.762 361.146 652.764 362.83C644.344 365.622 634.242 362.644 629.577 360.417C628.315 359.815 627.262 359.185 626.439 358.578C625.826 358.113 625.307 357.567 624.846 357.003L617.739 369.803C617.457 370.311 616.983 370.728 616.375 370.951C615.901 371.11 604.916 374.864 581.932 363.896C581.053 363.477 580.135 363.038 579.274 362.585C554.946 350.291 546.528 337.836 546.143 337.31C545.642 336.557 545.616 335.645 546.03 334.9L560.074 309.605C556.583 306.482 548.753 298.805 547.616 292.052C546.181 283.571 549.569 267.626 555.994 260.497C561.436 254.442 569.944 253.319 573.487 253.125ZM552.645 286.741C552.298 288.76 552.328 290.188 552.966 291.478C553.528 292.645 554.601 293.672 556.345 294.889C559.888 297.394 564.147 298.784 568.461 299.728C571.82 300.474 573.178 298.638 573.078 295.506C573.023 293.339 572.113 291.234 571.392 289.134C568.803 281.687 568.664 273.225 573.036 266.745C572.086 269.675 571.365 272.715 570.931 275.763C570.658 277.561 570.519 279.379 570.666 281.206C571.153 287.649 575.291 293.35 579.938 298.137C581.013 299.25 582.225 300.814 583.584 301.676C585.134 302.63 587.272 303.051 588.991 303.785C591.668 304.977 594.828 307.213 597.499 304.932C598.785 303.833 599.346 302.215 599.905 300.683C601.96 295.067 604.488 289.206 609.663 285.636C611.635 284.264 613.913 283.295 616.175 282.447C609.217 287.137 604.028 293.869 601.549 301.468C600.078 306.035 600.262 310.234 603.965 313.672L602.7 312.64C603.237 313.153 603.793 313.633 604.387 314.044C604.445 314.115 604.521 314.151 604.618 314.24C606.112 315.468 607.34 316.653 608.7 317.602L610.291 318.918C613.531 321.535 616.96 323.899 621.124 325.372C609.397 321.575 599.755 313.676 588.439 308.962C584.713 307.398 580.702 306.169 576.663 306.212C566.433 306.342 563.447 314.769 559.631 321.643C556.979 326.418 554.347 331.159 551.696 335.933C554.273 339.133 563.071 348.728 581.794 358.219C582.655 358.673 583.497 359.075 584.338 359.476C584.491 359.549 584.606 359.604 584.759 359.677C589.074 360.88 594.934 362.262 597.236 361.861C601.098 361.177 598.234 355.185 590.362 349.672C582.491 344.16 553.952 334.397 553.952 334.397C553.952 334.397 583.801 341.187 599.999 351.744C609.113 357.72 612.897 361.796 614.478 364.264C614.303 363.967 615.868 361.757 616.019 361.486C617.204 359.354 617.922 358.583 616.344 356.373C615.323 354.901 614.264 353.496 612.997 352.206C610.924 350.103 608.397 348.468 605.889 346.8C610.391 347.664 614.637 349.861 617.804 352.958C617.996 353.135 618.208 353.364 618.512 353.425C618.685 353.464 618.855 353.416 619.026 353.37C621.25 352.675 622.416 350.576 623.413 348.781C624.316 347.155 625.393 346.085 626.564 344.673C629.321 341.449 629.379 336.379 628.111 332.476C627.819 331.608 627.432 330.738 626.723 330.1C627.85 330.681 628.582 331.715 629.256 332.679C630.489 334.467 631.57 336.354 632.099 338.362C632.807 341.184 631.839 344.235 630.466 346.707C628.983 349.725 628.001 353.411 629.82 354.751C630.089 354.965 630.722 355.396 631.945 355.979C636.878 358.333 644.855 359.998 650.595 358.111C654.035 356.968 656.514 354.595 657.935 351.076C662.331 340.109 659.45 331.881 657.893 327.454C657.329 325.857 656.939 324.729 656.912 323.731C656.921 322.408 657.58 321.223 658.445 319.665C660.457 316.128 663.484 310.762 659.681 301.494C655.684 291.791 645.56 285.803 639.513 282.232C637.331 280.934 635.762 280.014 634.765 279.11C632.904 277.408 632.619 274.959 632.294 272.148C631.787 268.094 631.159 263.04 625.959 258.203C623.945 256.342 621.092 254.51 617.689 252.886C607.401 247.977 594.335 245.982 588.561 248.453C580.337 251.939 577.515 256.76 577.496 256.794C577.027 257.641 576.077 258.13 575.029 258.101C574.934 258.098 565.463 257.905 560.247 263.726C554.579 270.102 554.035 278.923 552.645 286.741Z" fill="#0D0D0D"/>
<path d="M596.815 248.922C601.918 248.53 607.151 250.17 611.382 252.917C611.919 253.259 612.474 253.652 612.744 254.21C613.016 254.768 612.963 255.471 612.433 255.817C608.267 254.172 603.345 253.28 599.338 255.008C597.742 255.704 596.435 256.75 595.128 257.797C593.651 258.977 592.173 260.157 590.696 261.336C589.844 262.001 589.029 262.683 587.965 263.032C586.939 263.399 585.662 263.432 584.725 262.856C583.864 262.317 583.418 261.376 583.297 260.461C583.075 258.856 583.616 257.273 584.425 255.902C586.872 251.844 591.711 249.313 596.815 248.922Z" fill="#0D0D0D"/>
<path d="M636.208 344.992C636.683 345.005 637.125 345.258 637.526 345.492C639.879 346.829 644.067 348.871 646.746 347.793C646.992 347.696 647.201 347.582 647.429 347.433C649.325 346.111 649.971 343.292 653.004 343.84C653.348 343.918 653.73 344.015 654.034 343.903C654.338 343.791 654.545 343.504 654.695 343.233C655.183 342.267 656.331 335.233 658.458 339.418C659.057 340.603 659.089 342.289 659.041 343.508C659.005 346.275 658.092 348.966 656.374 351.188C653.373 355.025 647.997 357.214 642.735 356.758C639.684 356.503 636.609 355.335 634.782 353.049C632.955 350.764 632.853 347.374 634.992 345.525C635.352 345.226 635.731 344.978 636.208 344.992Z" fill="#0D0D0D"/>
<path d="M618.109 404.43C622.667 394.656 614.064 371.42 614.064 371.42L613.505 370.021L612.665 368.343L611.546 366.665L609.588 364.427L604.552 359.951L601.475 357.153L595.321 352.397L588.327 347.922L580.774 344.285L569.025 339.809C569.025 339.809 565.668 338.13 560.913 336.732C560.284 336.547 558.115 336.288 558.115 336.288L556.717 336.288L555.318 336.288L553.488 336.288L547.204 336.732L540.77 338.13C540.77 338.13 516.432 344.564 507.76 352.397L531.108 362.183C533.031 358.06 547.665 356.588 553.488 355.754C559.312 354.921 567.326 358.033 573.639 360.977C579.952 363.92 590.387 370.34 593.492 375.337C596.596 380.334 599.61 392.195 597.688 396.318L618.109 404.43Z" fill="#F14A16"/>
</g>
<defs>
<filter id="filter0_d_34_39" x="0.650635" y="19.35" width="632.072" height="315.78" filterUnits="userSpaceOnUse" color-interpolation-filters="sRGB">
<feFlood flood-opacity="0" result="BackgroundImageFix"/>
<feColorMatrix in="SourceAlpha" type="matrix" values="0 0 0 0 0 0 0 0 0 0 0 0 0 0 0 0 0 0 127 0" result="hardAlpha"/>
<feOffset dy="4"/>
<feGaussianBlur stdDeviation="6"/>
<feComposite in2="hardAlpha" operator="out"/>
<feColorMatrix type="matrix" values="0 0 0 0 0 0 0 0 0 0 0 0 0 0 0 0 0 0 0.25 0"/>
<feBlend mode="normal" in2="BackgroundImageFix" result="effect1_dropShadow_34_39"/>
<feBlend mode="normal" in="SourceGraphic" in2="effect1_dropShadow_34_39" result="shape"/>
</filter>
<filter id="filter1_d_34_39" x="229.615" y="234.372" width="449.56" height="252.904" filterUnits="userSpaceOnUse" color-interpolation-filters="sRGB">
<feFlood flood-opacity="0" result="BackgroundImageFix"/>
<feColorMatrix in="SourceAlpha" type="matrix" values="0 0 0 0 0 0 0 0 0 0 0 0 0 0 0 0 0 0 127 0" result="hardAlpha"/>
<feOffset dy="4"/>
<feGaussianBlur stdDeviation="6"/>
<feComposite in2="hardAlpha" operator="out"/>
<feColorMatrix type="matrix" values="0 0 0 0 0 0 0 0 0 0 0 0 0 0 0 0 0 0 0.25 0"/>
<feBlend mode="normal" in2="BackgroundImageFix" result="effect1_dropShadow_34_39"/>
<feBlend mode="normal" in="SourceGraphic" in2="effect1_dropShadow_34_39" result="shape"/>
</filter>
</defs>
</svg>
