<svg width="207" height="118" viewBox="0 0 207 118" fill="none" xmlns="http://www.w3.org/2000/svg">
<path opacity="0.75" d="M29.88 5.64C30.28 5.64 30.86 5.68 31.62 5.76C32.38 5.82 33.1 5.96 33.78 6.18L33.33 8.13C32.95 8.03 32.47 7.95 31.89 7.89C31.33 7.81 30.67 7.77 29.91 7.77C28.89 7.77 28.1 7.87 27.54 8.07C27 8.27 26.61 8.55 26.37 8.91C26.13 9.27 25.98 9.7 25.92 10.2C25.88 10.68 25.86 11.21 25.86 11.79V21.21C25.86 21.79 25.88 22.33 25.92 22.83C25.98 23.31 26.13 23.73 26.37 24.09C26.61 24.45 27 24.73 27.54 24.93C28.1 25.13 28.89 25.23 29.91 25.23C30.67 25.23 31.33 25.19 31.89 25.11C32.45 25.01 33.02 24.89 33.6 24.75L34.17 26.52C33.71 26.72 33.09 26.91 32.31 27.09C31.53 27.27 30.72 27.36 29.88 27.36C28.24 27.36 26.96 27.17 26.04 26.79C25.14 26.41 24.49 25.8 24.09 24.96C23.71 24.1 23.47 22.98 23.37 21.6C23.29 20.22 23.25 18.53 23.25 16.53C23.25 14.53 23.29 12.84 23.37 11.46C23.47 10.06 23.71 8.94 24.09 8.1C24.49 7.24 25.14 6.62 26.04 6.24C26.96 5.84 28.24 5.64 29.88 5.64ZM43.0355 27.36C41.6755 27.36 40.6255 27.17 39.8855 26.79C39.1455 26.41 38.6155 25.87 38.2955 25.17C37.9755 24.45 37.7755 23.59 37.6955 22.59C37.6355 21.59 37.6055 20.46 37.6055 19.2C37.6055 17.94 37.6355 16.81 37.6955 15.81C37.7755 14.81 37.9755 13.96 38.2955 13.26C38.6155 12.56 39.1455 12.02 39.8855 11.64C40.6255 11.26 41.6755 11.07 43.0355 11.07C44.3955 11.07 45.4455 11.26 46.1855 11.64C46.9455 12.02 47.4855 12.56 47.8055 13.26C48.1255 13.96 48.3155 14.81 48.3755 15.81C48.4555 16.81 48.4955 17.94 48.4955 19.2C48.4955 20.46 48.4555 21.59 48.3755 22.59C48.3155 23.59 48.1255 24.45 47.8055 25.17C47.4855 25.87 46.9455 26.41 46.1855 26.79C45.4455 27.17 44.3955 27.36 43.0355 27.36ZM45.9455 22.65V15.78C45.9455 15.26 45.9055 14.79 45.8255 14.37C45.7455 13.95 45.5055 13.62 45.1055 13.38C44.7055 13.14 44.0155 13.02 43.0355 13.02C42.0555 13.02 41.3555 13.14 40.9355 13.38C40.5355 13.62 40.2955 13.95 40.2155 14.37C40.1355 14.79 40.0955 15.26 40.0955 15.78V22.65C40.0955 23.17 40.1355 23.64 40.2155 24.06C40.2955 24.48 40.5355 24.81 40.9355 25.05C41.3555 25.29 42.0555 25.41 43.0355 25.41C44.0155 25.41 44.7055 25.29 45.1055 25.05C45.5055 24.81 45.7455 24.48 45.8255 24.06C45.9055 23.64 45.9455 23.17 45.9455 22.65ZM51.9363 17.04H61.3263V18.99H51.9363V17.04ZM77.5737 6V27H74.9937V17.52H67.7937V27H65.2137V6H67.7937V15.42H74.9937V6H77.5737ZM87.9476 27.36C86.5876 27.36 85.5376 27.17 84.7976 26.79C84.0576 26.41 83.5276 25.87 83.2076 25.17C82.8876 24.45 82.6876 23.59 82.6076 22.59C82.5476 21.59 82.5176 20.46 82.5176 19.2C82.5176 17.94 82.5476 16.81 82.6076 15.81C82.6876 14.81 82.8876 13.96 83.2076 13.26C83.5276 12.56 84.0576 12.02 84.7976 11.64C85.5376 11.26 86.5876 11.07 87.9476 11.07C89.3076 11.07 90.3576 11.26 91.0976 11.64C91.8576 12.02 92.3976 12.56 92.7176 13.26C93.0376 13.96 93.2276 14.81 93.2876 15.81C93.3676 16.81 93.4076 17.94 93.4076 19.2C93.4076 20.46 93.3676 21.59 93.2876 22.59C93.2276 23.59 93.0376 24.45 92.7176 25.17C92.3976 25.87 91.8576 26.41 91.0976 26.79C90.3576 27.17 89.3076 27.36 87.9476 27.36ZM90.8576 22.65V15.78C90.8576 15.26 90.8176 14.79 90.7376 14.37C90.6576 13.95 90.4176 13.62 90.0176 13.38C89.6176 13.14 88.9276 13.02 87.9476 13.02C86.9676 13.02 86.2676 13.14 85.8476 13.38C85.4476 13.62 85.2076 13.95 85.1276 14.37C85.0476 14.79 85.0076 15.26 85.0076 15.78V22.65C85.0076 23.17 85.0476 23.64 85.1276 24.06C85.2076 24.48 85.4476 24.81 85.8476 25.05C86.2676 25.29 86.9676 25.41 87.9476 25.41C88.9276 25.41 89.6176 25.29 90.0176 25.05C90.4176 24.81 90.6576 24.48 90.7376 24.06C90.8176 23.64 90.8576 23.17 90.8576 22.65ZM101.648 17.97L104.078 18.3C105.098 18.44 105.878 18.82 106.418 19.44C106.958 20.06 107.228 21.17 107.228 22.77C107.228 23.61 107.068 24.38 106.748 25.08C106.448 25.78 105.938 26.34 105.218 26.76C104.518 27.16 103.578 27.36 102.398 27.36C101.398 27.36 100.478 27.27 99.6384 27.09C98.7984 26.91 98.0684 26.67 97.4484 26.37L97.9284 24.87C98.4884 24.97 99.1384 25.08 99.8784 25.2C100.638 25.32 101.378 25.38 102.098 25.38C103.078 25.38 103.778 25.19 104.198 24.81C104.618 24.43 104.828 23.75 104.828 22.77C104.828 22.25 104.728 21.77 104.528 21.33C104.348 20.89 103.858 20.61 103.058 20.49L100.628 20.16C99.7684 20.04 99.1184 19.78 98.6784 19.38C98.2584 18.96 97.9684 18.46 97.8084 17.88C97.6684 17.28 97.5984 16.64 97.5984 15.96C97.5984 14.36 98.0084 13.15 98.8284 12.33C99.6684 11.49 100.768 11.07 102.128 11.07C103.068 11.07 103.938 11.16 104.738 11.34C105.538 11.52 106.218 11.76 106.778 12.06L106.328 13.74C105.828 13.62 105.228 13.5 104.528 13.38C103.848 13.24 103.178 13.17 102.518 13.17C102.038 13.17 101.608 13.22 101.228 13.32C100.848 13.42 100.548 13.64 100.328 13.98C100.108 14.3 99.9984 14.81 99.9984 15.51C99.9984 16.25 100.068 16.82 100.208 17.22C100.368 17.6 100.848 17.85 101.648 17.97ZM114.017 8.7H115.127V11.4H117.887V13.17H115.127V23.25C115.127 23.99 115.197 24.57 115.337 24.99C115.497 25.41 115.937 25.62 116.657 25.62C116.817 25.62 116.987 25.61 117.167 25.59C117.347 25.57 117.547 25.54 117.767 25.5L117.977 27C117.657 27.1 117.327 27.18 116.987 27.24C116.647 27.32 116.267 27.36 115.847 27.36C114.827 27.36 114.087 27.19 113.627 26.85C113.187 26.51 112.917 26.03 112.817 25.41C112.717 24.79 112.667 24.07 112.667 23.25V13.17H110.537V11.85L112.667 11.4L114.017 8.7ZM126.794 11.07C128.314 11.07 129.434 11.28 130.154 11.7C130.874 12.1 131.334 12.65 131.534 13.35C131.754 14.05 131.864 14.85 131.864 15.75C131.864 16.89 131.684 17.78 131.324 18.42C130.984 19.06 130.464 19.52 129.764 19.8C129.084 20.08 128.254 20.26 127.274 20.34C126.294 20.4 125.174 20.44 123.914 20.46V22.71C123.914 23.83 124.154 24.56 124.634 24.9C125.134 25.22 125.784 25.38 126.584 25.38C127.304 25.38 128.054 25.32 128.834 25.2C129.614 25.06 130.354 24.84 131.054 24.54L131.534 26.04C130.774 26.48 130.004 26.81 129.224 27.03C128.444 27.25 127.554 27.36 126.554 27.36C125.294 27.36 124.304 27.17 123.584 26.79C122.884 26.41 122.384 25.87 122.084 25.17C121.784 24.45 121.594 23.59 121.514 22.59C121.454 21.59 121.424 20.46 121.424 19.2C121.424 17.94 121.454 16.81 121.514 15.81C121.594 14.81 121.794 13.96 122.114 13.26C122.434 12.56 122.964 12.02 123.704 11.64C124.444 11.26 125.474 11.07 126.794 11.07ZM123.914 15.66V18.75C124.874 18.75 125.764 18.72 126.584 18.66C127.424 18.58 128.104 18.38 128.624 18.06C129.144 17.74 129.404 17.19 129.404 16.41V15.72C129.404 15.16 129.354 14.68 129.254 14.28C129.174 13.88 128.944 13.58 128.564 13.38C128.204 13.16 127.604 13.05 126.764 13.05C125.584 13.05 124.814 13.3 124.454 13.8C124.094 14.28 123.914 14.9 123.914 15.66ZM135.75 20.13C135.75 18.63 135.78 17.33 135.84 16.23C135.92 15.11 136.11 14.18 136.41 13.44C136.73 12.7 137.24 12.15 137.94 11.79C138.66 11.43 139.65 11.25 140.91 11.25C142.03 11.25 143.03 11.38 143.91 11.64V5.4H146.22V27H144.87L144.48 25.53C144.06 26.11 143.58 26.53 143.04 26.79C142.5 27.05 141.95 27.21 141.39 27.27C140.83 27.33 140.32 27.36 139.86 27.36C138.68 27.36 137.79 27.1 137.19 26.58C136.61 26.06 136.22 25.27 136.02 24.21C135.84 23.13 135.75 21.77 135.75 20.13ZM143.76 22.8V13.5C143.32 13.4 142.86 13.32 142.38 13.26C141.92 13.2 141.45 13.17 140.97 13.17C140.19 13.17 139.6 13.26 139.2 13.44C138.82 13.6 138.57 13.89 138.45 14.31C138.33 14.71 138.27 15.27 138.27 15.99V22.74C138.27 23.3 138.31 23.78 138.39 24.18C138.49 24.58 138.72 24.89 139.08 25.11C139.46 25.31 140.07 25.41 140.91 25.41C142.09 25.41 142.86 25.16 143.22 24.66C143.58 24.16 143.76 23.54 143.76 22.8ZM159.11 5.4H161.42V12.42C162.04 11.84 162.72 11.5 163.46 11.4C164.2 11.3 164.87 11.25 165.47 11.25C166.67 11.25 167.56 11.51 168.14 12.03C168.72 12.55 169.1 13.34 169.28 14.4C169.48 15.46 169.58 16.82 169.58 18.48C169.58 19.98 169.54 21.29 169.46 22.41C169.4 23.51 169.21 24.43 168.89 25.17C168.59 25.91 168.08 26.46 167.36 26.82C166.66 27.18 165.68 27.36 164.42 27.36C163.86 27.36 163.11 27.29 162.17 27.15C161.25 27.03 160.23 26.81 159.11 26.49V5.4ZM161.57 15.78V25.08C162.03 25.16 162.49 25.24 162.95 25.32C163.41 25.38 163.88 25.41 164.36 25.41C165.16 25.41 165.75 25.33 166.13 25.17C166.51 24.99 166.76 24.7 166.88 24.3C167 23.88 167.06 23.31 167.06 22.59V15.84C167.06 15.28 167.01 14.8 166.91 14.4C166.83 14 166.6 13.7 166.22 13.5C165.86 13.28 165.26 13.17 164.42 13.17C163.24 13.17 162.47 13.42 162.11 13.92C161.75 14.4 161.57 15.02 161.57 15.78ZM172.99 32.4L173.53 30.66C174.07 30.78 174.62 30.84 175.18 30.84C175.82 30.84 176.39 30.68 176.89 30.36C177.39 30.06 177.76 29.42 178 28.44L178.33 27H176.65L173.02 11.4H175.45L178.54 25.38H178.72L181.81 11.4H184.24L180.28 28.35C180.08 29.21 179.8 29.97 179.44 30.63C179.08 31.31 178.56 31.84 177.88 32.22C177.2 32.62 176.26 32.82 175.06 32.82C174.3 32.82 173.61 32.68 172.99 32.4Z" fill="white"/>
<path d="M141.651 83.7327C140.796 82.8474 140.096 81.7785 139.741 80.5533C139.392 79.4137 140.393 79.204 140.216 78.7995C139.568 77.078 138.317 76.0645 136.655 75.4547C134.173 74.6309 131.844 74.5527 129.408 74.6563C130.461 73.0223 131.341 71.3424 132.081 69.5508C133.072 69.8182 138.8 71.1432 142.233 77.6035C144.573 82.2673 142.939 84.8617 141.651 83.7327Z" fill="white"/>
<path d="M137.571 56.0974C135.725 55.0937 135.671 54.9083 135.238 53.9712C134.131 51.4568 131.696 51.5059 131.671 51.4126C131.13 49.5484 130.009 48.2684 128.209 47.5161C126.191 46.6693 122.865 47.0115 119.931 48.6461C114.906 51.4412 111.482 57.0942 107.569 60.59C103.047 64.6301 97.0543 66.154 91.6665 63.2513C88.3945 61.4884 85.6589 59.7848 81.8067 59.7568C77.0004 59.7213 72.5756 61.911 68.762 64.8628C68.1128 65.3084 68.025 64.6861 67.6211 65.1012C66.4895 66.2591 67.5563 65.0259 64.4579 68.9385C64.5967 68.9098 65.9598 67.9385 67.852 66.9772C68.7097 66.5839 68.4919 66.1104 68.8902 65.7545C72.7928 63.5337 77.3315 61.1052 81.9474 61.6795C86.4232 62.3838 87.3494 66.1708 84.9282 67.4389C82.942 68.6491 77.6359 70.6639 68.3637 77.2809C66.8101 78.59 64.4853 80.5269 64.0434 82.7159C63.978 83.2524 64.2438 83.6096 64.8009 83.853C66.182 84.4501 68.8529 84.2269 70.3697 84.032C71.4932 83.9766 70.9809 82.469 70 81.8936C69.3315 81.5208 68.5995 81.509 67.7792 81.6577C69.1018 78.6726 74.8885 79.1213 81.7874 77.8067C93.8642 75.691 98.5139 68.7667 114.509 61.9632C117.5 60.7673 121.584 59.0785 124.751 59.0785C128.439 59.0032 129.53 62.8667 127.91 66.5055C127.928 64.8379 127.976 62.8605 126.324 62.2594C121.03 61.018 105.516 68.0481 93.296 78.8606C91.8545 80.1475 89.597 82.3322 88.611 83.9722C98.6152 78.8606 109.165 72.4734 116.502 72.9376C119.034 73.0483 121.039 74.1111 120.08 76.3505C118.831 78.9813 116.071 80.6577 113.648 81.8566C113.493 81.3291 113.329 80.8824 112.706 80.8215C111.587 80.7112 110.417 80.8411 109.473 81.2935C108.363 81.856 107.776 82.9818 109.115 83.6555C110.924 84.6773 114.384 84.8223 118.245 82.2761C126.742 76.8059 130.36 67.3375 130.773 66.299C131.439 64.4466 131.398 63.2114 131.284 62.0192C131.153 60.7648 131.085 59.4998 132.624 58.4942C130.938 61.2943 133.02 64.8379 136.287 64.7533C135.636 63.3433 135.882 62.2246 135.922 62.2277C136.335 62.2631 137.19 62.367 137.7 62.326C139.057 62.2469 139.82 61.3279 140.47 60.257C140.71 59.8538 140.199 59.8918 140.1 59.0076C141.019 59.1016 141.47 59.0536 141.542 58.8601C141.652 58.5559 140.811 57.8627 137.571 56.0974Z" fill="white"/>
<path d="M43.8292 112.363C43.1427 112.92 41.8977 113.273 40.7833 113.273C39.1099 113.273 37.1182 112.526 37.1182 108.972V98.709H32.4072V110.216C32.4072 113.595 33.822 115.9 36.2832 116.74C36.9595 116.97 37.7105 117.097 38.5387 117.097C39.3156 117.097 40.0028 116.961 40.6076 116.74C43.0414 115.847 44.0965 113.501 43.8247 112.373L43.8292 112.363Z" fill="white"/>
<path d="M44.9201 98.71V108.973C44.9201 109.1 44.917 109.225 44.9097 109.348L44.9302 109.302L44.9201 116.741H49.6308V98.71H44.9201Z" fill="white"/>
<path d="M64.464 106.394L60.9749 105.646C59.2266 105.295 58.8594 104.354 58.8594 103.626C58.8594 102.924 59.2302 101.745 61.702 101.745C63.6972 101.745 64.844 102.595 65.1201 104.272H69.0031C68.8697 101.363 67.3215 99.4541 64.567 98.7071C63.7039 98.4728 62.7255 98.3496 61.6312 98.3496C60.5323 98.3496 59.5367 98.4743 58.6556 98.7071C55.9047 99.4337 54.2878 101.236 54.2878 103.769C54.2878 106.429 55.9968 108.17 59.3691 108.944L62.7848 109.655C64.0935 109.925 64.7595 110.558 64.7595 111.533C64.7595 112.91 63.6066 113.7 61.5955 113.7C59.4668 113.7 58.2584 112.836 57.9982 111.133H53.7944C53.9033 114.065 55.5299 115.987 58.4535 116.737C59.3655 116.971 60.4003 117.095 61.5594 117.095C62.7647 117.095 63.8505 116.97 64.8105 116.737C67.867 115.996 69.6136 114.126 69.6136 111.426C69.6136 108.765 67.9794 107.163 64.464 106.394Z" fill="white"/>
<path d="M85.5922 109.996C85.0791 112.147 83.734 113.235 81.5861 113.235C78.6914 113.235 76.963 111.188 76.963 107.758C76.963 104.282 78.6914 102.209 81.5861 102.209C83.7467 102.209 85.0954 103.275 85.5922 105.377H89.8257C89.2665 101.085 86.7931 99.3563 84.4216 98.7071C83.4199 98.4326 82.4361 98.3496 81.6223 98.3496C80.7284 98.3496 79.8023 98.4632 78.8983 98.7071C75.5652 99.6063 72.5347 102.296 72.5347 107.758C72.5347 111.382 74.2217 115.517 78.7516 116.737C79.6051 116.967 80.5589 117.095 81.6223 117.095C82.3229 117.095 83.3164 117.027 84.3732 116.737C86.6984 116.101 89.3308 114.396 89.8288 109.996H85.5922Z" fill="white"/>
<path d="M94.0068 92.2988V116.739H98.7176V92.2988H94.0068Z" fill="white"/>
<path d="M107.315 105.99L107.353 105.942C107.73 103.242 109.267 101.816 111.798 101.816C114.423 101.816 115.98 103.33 116.068 105.968L116.074 105.99H107.315ZM120.492 107.615C120.492 104.666 119.682 100.018 114.841 98.7066C114 98.479 113.042 98.3496 111.941 98.3496C110.883 98.3496 109.906 98.4713 109.015 98.7066C105.128 99.7336 102.889 102.929 102.889 107.686C102.889 113.871 106.381 116.013 109.175 116.737C110.324 117.035 111.355 117.095 111.977 117.095C112.988 117.095 113.923 116.97 114.779 116.737C117.548 115.983 119.458 114.05 120.18 111.169H116.074C115.528 112.845 114.241 113.629 112.049 113.629C109.212 113.629 107.633 112.092 107.353 109.06L107.327 108.875H120.424C120.47 108.498 120.492 108.17 120.492 107.615Z" fill="white"/>
<path d="M129.383 98.709H124.668V116.74H129.383V106.494L129.387 106.48V106.243C129.384 106.321 129.383 106.399 129.383 106.476V98.709Z" fill="white"/>
<path d="M148.879 98.7071C148.23 98.4764 147.51 98.3496 146.716 98.3496C145.937 98.3496 145.234 98.4846 144.606 98.7071C142.569 99.4296 141.346 101.111 141.078 102.394L140.883 103.333L140.607 102.414C140.052 100.567 138.892 99.2886 137.315 98.7071C136.687 98.4754 135.995 98.3511 135.246 98.3496C134.398 98.3486 133.701 98.4835 133.116 98.7071C130.824 99.5819 130.358 101.877 130.29 103.248L130.26 103.435C130.83 102.679 131.705 102.174 132.969 102.174C134.476 102.174 136.276 102.917 136.276 106.475V116.738H140.987V106.475C140.987 104.395 141.929 102.174 144.581 102.174C146.088 102.174 147.885 102.917 147.885 106.475V116.738H152.6V105.231C152.6 101.851 151.241 99.5468 148.879 98.7071Z" fill="white"/>
<path d="M4.71384 98.71H0V116.741H4.71384V106.495L4.71809 106.481V106.244C4.71549 106.322 4.71384 106.4 4.71384 106.477V98.71Z" fill="white"/>
<path d="M22.0515 98.3496C18.744 98.3496 16.765 100.714 16.4141 102.394L16.2195 103.333L15.943 102.414C15.167 99.8309 13.214 98.3537 10.5821 98.3496C6.41398 98.3425 5.71214 101.527 5.62618 103.248L5.59619 103.435C6.16603 102.679 7.04144 102.173 8.30486 102.173C9.81222 102.173 11.6124 102.917 11.6124 106.475V116.737H16.3234V106.475C16.3234 104.395 17.2657 102.173 19.9167 102.173C21.4241 102.173 23.2212 102.917 23.2212 106.475V116.737H27.9353V105.231C27.9353 100.923 25.736 98.3496 22.0515 98.3496Z" fill="white"/>
<path d="M159.769 96.0413C161.182 96.0413 162.374 94.8493 162.374 93.4362C162.374 92.0063 161.182 90.7949 159.769 90.7949C158.359 90.7949 157.164 92.0063 157.164 93.4362C157.164 94.8493 158.359 96.0413 159.769 96.0413Z" fill="white"/>
<path d="M157.417 116.741H162.131V98.71H157.417V116.741Z" fill="white"/>
<path d="M172.041 98.71H167.327V116.741H172.041V106.477C172.041 106.329 172.048 106.185 172.057 106.043V106.02L172.041 106.063V98.71Z" fill="white"/>
<path d="M180.668 98.7071C179.991 98.4764 179.24 98.3496 178.413 98.3496C177.393 98.3496 176.562 98.482 175.881 98.7071C173.263 99.5722 172.901 101.831 172.901 103.413L172.866 103.615L172.854 103.645H172.859C173.562 102.697 174.698 102.174 176.17 102.174C177.842 102.174 179.832 102.917 179.832 106.475V116.738H184.546V105.231C184.546 101.851 183.129 99.5468 180.668 98.7071Z" fill="white"/>
<path d="M202.289 92.2988V109.509C202.289 109.514 202.287 109.52 202.287 109.524V109.555L202.289 109.546V116.739H207V92.2988H202.289Z" fill="white"/>
<path d="M198.436 98.7066C197.888 98.4841 197.291 98.3557 196.663 98.3496C196.639 98.3496 196.616 98.3496 196.592 98.3496C195.806 98.3496 195.019 98.4683 194.264 98.7066C191.248 99.6573 188.716 102.544 188.716 107.722C188.716 112.899 191.248 115.787 194.264 116.737C195.022 116.975 195.808 117.094 196.592 117.094C197.362 117.094 197.999 116.962 198.536 116.737C200.925 115.735 201.218 112.868 201.44 111.458L201.45 111.432H201.447C200.687 112.53 199.501 113.272 197.839 113.272C195.673 113.272 193.147 111.819 193.147 107.722C193.147 103.625 195.673 102.173 197.839 102.173C199.532 102.173 200.734 102.944 201.49 104.076V103.246C201.49 101.196 200.229 99.4327 198.436 98.7066Z" fill="white"/>
</svg>
