<svg width="155" height="152" viewBox="0 0 155 152" fill="none" xmlns="http://www.w3.org/2000/svg">
<path id="Vector" d="M120.682 135.473C110.072 123.862 94.657 116.556 77.5 116.556C60.343 116.556 44.9263 123.862 34.3165 135.473M77.5 149C36.3548 149 3 116.317 3 76C3 35.6832 36.3548 3 77.5 3C118.645 3 152 35.6832 152 76C152 116.317 118.645 149 77.5 149ZM77.5 92.2222C63.7849 92.2222 52.6667 81.3278 52.6667 67.8889C52.6667 54.45 63.7849 43.5556 77.5 43.5556C91.2151 43.5556 102.333 54.45 102.333 67.8889C102.333 81.3278 91.2151 92.2222 77.5 92.2222Z" stroke="#C1BBB3" stroke-width="5" stroke-linecap="round" stroke-linejoin="round"/>
</svg>
