<svg width="50" height="20" viewBox="0 0 240 235" fill="none" xmlns="http://www.w3.org/2000/svg">
<path d="M184.946 40.1951C173.577 38.8026 152.313 4.64909 126.715 6.04143C101.198 7.4338 92.6103 25.9438 79.8521 34.4619C67.0935 42.9797 6 41.5876 6 82.7848C6 123.982 47.1378 119.723 47.1378 119.723V216.369C133.748 244.789 196.232 216.369 196.232 216.369V118.331C230.336 109.813 241.705 77.1334 228.864 55.7568C216.024 34.3798 196.232 41.5876 184.946 40.1951Z" fill="#EEC1B7" fill-opacity="0.98"/>
<path d="M184.758 40.1323C173.793 38.7407 153.501 6.81851 129.035 6C136.809 12.5481 142.782 21.3881 144.664 31.3739C147.118 44.2247 141.718 58.8762 130.344 65.3426C125.025 68.3711 118.807 69.5171 113.57 72.7909C108.333 75.9832 104.242 82.6132 106.942 88.1792C109.315 93.0902 115.616 94.5636 121.098 94.4C126.58 94.2362 132.226 93.172 137.299 95.3822C143.518 98.0833 146.955 105.859 144.909 112.325C142.864 118.792 135.663 123.13 128.953 122.148C126.989 121.82 125.025 121.165 123.062 121.493C121.098 121.902 119.298 123.948 120.116 125.749C130.59 126.24 140.245 132.87 145.645 141.874C151.128 150.796 152.683 161.764 151.455 172.241C151.128 174.86 150.637 177.479 149.164 179.608C147.528 182.145 144.745 183.7 142.045 184.928C123.635 193.522 101.787 193.195 84.1948 203.345C81.9857 204.654 79.7765 206.128 78.3854 208.174C76.667 210.629 76.0942 213.658 76.0124 216.605C75.9307 219.224 76.2579 221.761 76.8308 224.217C147.691 238.459 196.214 216.359 196.214 216.359V118.219C230.335 109.706 241.708 77.0474 228.862 55.6839C216.015 34.4027 196.05 41.5236 184.758 40.1323Z" fill="#EB5939" fill-opacity="0.92"/>
<path d="M199.606 34.2162C197.555 34.2162 195.587 34.2982 193.701 34.3802C192.061 34.4624 190.503 34.4624 189.109 34.4624C187.797 34.4624 186.731 34.3802 185.828 34.2982C183.368 33.97 177.218 28.3903 172.215 23.8773C160.488 13.2106 145.891 0 128.341 0C127.685 0 127.111 -3.20673e-05 126.455 0.0820297C106.199 1.23077 95.2925 12.0618 86.5177 20.7594C83.1555 24.1235 79.9571 27.3237 76.5949 29.539C74.0525 31.2623 66.7539 32.9032 59.7014 34.4624C48.1382 37.0879 33.7869 40.3701 22.0598 47.0163C7.46272 55.3038 0 67.3656 0 82.7095C0 103.633 9.84096 114.054 18.1235 119.059C26.3245 123.982 35.4272 125.295 41.2496 125.541V216.62C41.2496 219.082 42.8077 221.297 45.1859 222.036C71.3462 230.651 97.9987 235 124.323 235C169.345 235 197.638 222.364 198.786 221.79C200.836 220.887 202.148 218.836 202.148 216.538V122.669C218.139 117.5 230.523 106.669 236.427 92.3917C241.922 79.0992 241.019 64.3297 234.131 52.678C224.29 36.3496 210.513 34.2162 199.606 34.2162ZM225.848 88.0431C220.846 100.105 209.611 109.131 195.095 112.823C192.553 113.479 190.749 115.777 190.749 118.403V212.846C182.384 215.964 158.93 223.431 125.717 223.677C109.726 222.036 89.552 216.538 109.07 203.492C133.508 187.245 182.712 206.2 182.712 206.2C182.712 206.2 157.372 191.758 111.284 193.071C79.8752 193.974 61.2595 201.44 52.5667 206.117C52.5667 193.727 52.5667 181.419 52.5667 169.029C52.5667 159.511 52.5667 149.993 52.5667 140.393C52.5667 132.188 49.3683 121.439 60.1114 118.567C65.688 117.09 71.5104 118.813 77.087 120.126C86.7638 122.341 96.7686 123.244 106.692 122.669C101.935 120.208 98.4909 115.203 97.9987 109.869C108.578 118.567 123.749 121.274 136.624 116.843C141.955 115.038 146.957 112.002 152.534 111.264C151.221 112.495 149.827 113.644 148.515 114.874C164.015 118.157 180.662 115.203 194.111 106.915C184.107 111.264 172.871 112.495 162.129 110.525C161.39 110.361 160.406 110.115 160.242 109.377C159.996 108.474 160.816 107.654 161.555 107.079C165.409 103.961 168.197 99.5304 169.345 94.7713C163.195 99.3662 156.798 103.633 150.156 107.489C146.137 109.787 142.037 112.002 137.608 113.069C133.508 114.054 129.243 114.054 124.979 113.726C109.152 112.413 93.8982 106.012 81.8432 95.7559C81.9254 102.484 85.4515 108.966 90.9462 112.823C92.7504 114.136 95.0464 115.695 94.7184 117.828C81.0233 116.762 67.328 115.367 53.7149 113.726C43.136 112.413 34.033 115.531 24.1101 109.459C15.7453 104.372 11.481 95.51 11.481 82.9558C11.481 66.9555 23.6182 57.9296 37.3952 52.76C53.9606 46.5242 70.5264 55.7959 80.9411 69.0888C75.5286 62.114 72.4944 52.1036 77.087 44.6368C79.9571 40.0419 84.9597 37.5803 88.9779 34.1339C92.6681 31.098 95.8665 27.57 99.4749 24.3698C107.429 17.1491 116.204 12.3079 127.193 11.6515C127.604 11.6515 128.013 11.6515 128.423 11.6515C143.759 11.6515 162.867 26.9956 169.591 40.1238C171.559 43.9804 173.282 47.9189 174.101 52.1856C174.922 56.3704 174.675 60.8833 172.789 64.8221C175.742 63.0169 178.12 60.4731 179.76 57.4372C181.236 54.7294 182.138 51.4473 184.516 49.5602C185.665 48.6576 187.059 48.0832 188.453 47.5088C201.246 42.4214 217.155 46.8524 224.454 58.8322C229.374 67.1194 229.948 78.1146 225.848 88.0431Z" fill="black"/>
<path d="M193.366 87.5912C194.363 83.0179 194.945 78.118 193.283 73.7079C191.621 69.2978 187.302 65.6228 182.566 66.031C183.812 71.2579 184.477 76.648 184.643 82.038C184.726 84.4064 184.643 86.7748 183.729 88.9797C182.234 92.6546 178.662 95.1046 177 98.6979C181.237 98.943 185.557 99.2696 189.794 98.6164C194.031 97.9631 198.268 96.3299 201.258 93.3079C202.338 92.1648 203.252 90.8579 204 89.4698C199.514 91.0214 194.945 92.1648 190.209 92.7365C192.12 92.0014 192.951 89.633 193.366 87.5912Z" fill="black"/>
<path d="M37.5732 96.4728C35.7799 95.1009 34.5572 93.1636 33.6606 91.1457C32.0301 87.4331 31.2966 83.3166 31.7041 79.2808C31.8672 77.6663 32.1933 75.9716 32.0301 74.3571C31.8672 72.743 31.052 70.9673 29.5033 70.3216C27.5468 69.4338 25.1014 70.4829 23.8787 72.2586C22.5742 74.0343 22.2482 76.2138 21.8407 78.3123C21.1887 82.5094 20.4549 86.868 21.5961 90.9035C23.5526 97.7642 30.2368 102.365 36.9209 104.948C46.3767 108.742 56.9738 109.871 67 108.338C58.8486 105.19 50.6972 102.123 42.5455 98.9752C40.9153 98.3292 39.122 97.6029 37.5732 96.4728Z" fill="black"/>
<path d="M91.2983 37.2669C88.1669 40.9402 85.283 44.9399 83.8821 49.5114C82.0692 55.7151 83.1406 62.6536 86.2717 68.368C89.4032 74.082 94.3471 78.6532 99.9502 82C95.5008 75.8779 92.0398 68.9391 89.8151 61.6741C89.4855 60.4497 89.1559 59.0619 89.8151 58.0008C90.8038 56.4499 93.2758 56.5315 94.4294 55.0621C96.0776 52.9398 93.523 50.001 93.523 47.3072C93.523 45.1849 95.1712 43.389 96.9014 42.1646C98.6319 40.9402 100.61 39.8788 101.928 38.1648C103.246 36.4505 103.494 33.7567 101.846 32.3689C98.0551 30.8995 94.0175 34.0832 91.2983 37.2669Z" fill="black"/>
</svg>
