<svg width="33" height="33" viewBox="0 0 33 33" fill="none" xmlns="http://www.w3.org/2000/svg">
<path d="M25.5368 28.7205C23.3471 26.3347 20.1658 24.8333 16.625 24.8333C13.0842 24.8333 9.90257 26.3347 7.71297 28.7205M16.625 31.5C8.13362 31.5 1.25 24.7843 1.25 16.5C1.25 8.21573 8.13362 1.5 16.625 1.5C25.1164 1.5 32 8.21573 32 16.5C32 24.7843 25.1164 31.5 16.625 31.5ZM16.625 19.8333C13.7945 19.8333 11.5 17.5948 11.5 14.8333C11.5 12.0719 13.7945 9.83333 16.625 9.83333C19.4555 9.83333 21.75 12.0719 21.75 14.8333C21.75 17.5948 19.4555 19.8333 16.625 19.8333Z" stroke="#C1BBB3" stroke-width="2" stroke-linecap="round" stroke-linejoin="round"/>
</svg>
