<svg width="829" height="699" viewBox="0 0 829 699" fill="none" xmlns="http://www.w3.org/2000/svg">
<g filter="url(#filter0_d_19_30)">
<mask id="path-1-outside-1_19_30" maskUnits="userSpaceOnUse" x="120.646" y="25" width="671" height="143" fill="black">
<rect fill="white" x="120.646" y="25" width="671" height="143"/>
<path d="M124.212 96.7385C124.212 88.6827 125.782 80.9 128.923 73.3904C132.2 65.8808 136.774 59.2586 142.645 53.524C148.652 47.6529 155.821 43.0106 164.15 39.5971C172.615 36.0471 181.968 34.2721 192.208 34.2721H265.939V56.1865H193.027C188.931 56.1865 184.562 57.3471 179.92 59.6683C175.414 61.8529 171.181 64.8567 167.222 68.6798C163.399 72.5029 160.19 76.8721 157.596 81.7875C155.138 86.5663 153.909 91.4817 153.909 96.5337C153.909 101.586 155.138 106.569 157.596 111.485C160.053 116.263 163.194 120.564 167.017 124.387C170.977 128.211 175.346 131.283 180.125 133.604C184.903 135.925 189.682 137.086 194.461 137.086H265.939V159H191.594C180.671 159 171.045 157.157 162.716 153.47C154.387 149.647 147.355 144.732 141.621 138.724C135.886 132.716 131.517 126.026 128.513 118.653C125.646 111.28 124.212 103.975 124.212 96.7385ZM286.818 97.3529C286.818 87.9317 288.935 79.0567 293.167 70.7279C297.4 62.399 303.203 55.1625 310.576 49.0183C317.949 42.874 326.551 38.0269 336.382 34.4769C346.212 30.7904 356.794 28.9471 368.127 28.9471C379.733 28.9471 390.451 30.7221 400.282 34.2721C410.249 37.8221 418.851 42.6692 426.087 48.8135C433.461 54.9577 439.195 62.1942 443.291 70.5231C447.387 78.8519 449.436 87.7952 449.436 97.3529C449.436 106.911 447.319 115.786 443.086 123.978C438.99 132.17 433.324 139.27 426.087 145.278C418.851 151.286 410.249 155.996 400.282 159.41C390.314 162.823 379.596 164.53 368.127 164.53C356.794 164.53 346.212 162.823 336.382 159.41C326.551 155.996 317.949 151.286 310.576 145.278C303.203 139.27 297.4 132.17 293.167 123.978C288.935 115.786 286.818 106.911 286.818 97.3529ZM317.13 97.3529C317.13 103.087 318.427 108.549 321.021 113.737C323.752 118.789 327.438 123.227 332.081 127.05C336.723 130.737 342.048 133.74 348.056 136.062C354.2 138.246 360.754 139.338 367.717 139.338C374.817 139.338 381.508 138.314 387.788 136.266C394.069 134.082 399.531 131.146 404.173 127.46C408.952 123.773 412.707 119.404 415.437 114.352C418.168 109.163 419.534 103.497 419.534 97.3529C419.534 91.6183 418.236 86.1567 415.642 80.9683C413.048 75.6433 409.43 71.001 404.787 67.0413C400.145 63.0817 394.684 59.9413 388.403 57.6202C382.259 55.299 375.5 54.1385 368.127 54.1385C361.027 54.1385 354.336 55.299 348.056 57.6202C341.911 59.9413 336.518 63.15 331.876 67.2462C327.37 71.2058 323.752 75.7798 321.021 80.9683C318.427 86.1567 317.13 91.6183 317.13 97.3529ZM466.625 97.3529C466.625 87.9317 468.741 79.0567 472.974 70.7279C477.207 62.399 483.01 55.1625 490.383 49.0183C497.756 42.874 506.358 38.0269 516.188 34.4769C526.019 30.7904 536.601 28.9471 547.934 28.9471C559.539 28.9471 570.258 30.7221 580.088 34.2721C590.056 37.8221 598.658 42.6692 605.894 48.8135C613.267 54.9577 619.002 62.1942 623.098 70.5231C627.194 78.8519 629.242 87.7952 629.242 97.3529C629.242 106.911 627.126 115.786 622.893 123.978C618.797 132.17 613.131 139.27 605.894 145.278C598.658 151.286 590.056 155.996 580.088 159.41C570.121 162.823 559.403 164.53 547.934 164.53C536.601 164.53 526.019 162.823 516.188 159.41C506.358 155.996 497.756 151.286 490.383 145.278C483.01 139.27 477.207 132.17 472.974 123.978C468.741 115.786 466.625 106.911 466.625 97.3529ZM496.936 97.3529C496.936 103.087 498.234 108.549 500.828 113.737C503.559 118.789 507.245 123.227 511.887 127.05C516.53 130.737 521.855 133.74 527.862 136.062C534.007 138.246 540.561 139.338 547.524 139.338C554.624 139.338 561.314 138.314 567.595 136.266C573.876 134.082 579.337 131.146 583.98 127.46C588.759 123.773 592.513 119.404 595.244 114.352C597.975 109.163 599.34 103.497 599.34 97.3529C599.34 91.6183 598.043 86.1567 595.449 80.9683C592.855 75.6433 589.236 71.001 584.594 67.0413C579.952 63.0817 574.49 59.9413 568.21 57.6202C562.065 55.299 555.307 54.1385 547.934 54.1385C540.834 54.1385 534.143 55.299 527.862 57.6202C521.718 59.9413 516.325 63.15 511.683 67.2462C507.177 71.2058 503.559 75.7798 500.828 80.9683C498.234 86.1567 496.936 91.6183 496.936 97.3529ZM683.502 34.2721V93.4615L744.33 34.2721H783.858L721.391 96.124L783.858 159H744.33L683.502 99.8106V159H650.118V34.2721H683.502Z"/>
</mask>
<path d="M124.212 96.7385C124.212 88.6827 125.782 80.9 128.923 73.3904C132.2 65.8808 136.774 59.2586 142.645 53.524C148.652 47.6529 155.821 43.0106 164.15 39.5971C172.615 36.0471 181.968 34.2721 192.208 34.2721H265.939V56.1865H193.027C188.931 56.1865 184.562 57.3471 179.92 59.6683C175.414 61.8529 171.181 64.8567 167.222 68.6798C163.399 72.5029 160.19 76.8721 157.596 81.7875C155.138 86.5663 153.909 91.4817 153.909 96.5337C153.909 101.586 155.138 106.569 157.596 111.485C160.053 116.263 163.194 120.564 167.017 124.387C170.977 128.211 175.346 131.283 180.125 133.604C184.903 135.925 189.682 137.086 194.461 137.086H265.939V159H191.594C180.671 159 171.045 157.157 162.716 153.47C154.387 149.647 147.355 144.732 141.621 138.724C135.886 132.716 131.517 126.026 128.513 118.653C125.646 111.28 124.212 103.975 124.212 96.7385ZM286.818 97.3529C286.818 87.9317 288.935 79.0567 293.167 70.7279C297.4 62.399 303.203 55.1625 310.576 49.0183C317.949 42.874 326.551 38.0269 336.382 34.4769C346.212 30.7904 356.794 28.9471 368.127 28.9471C379.733 28.9471 390.451 30.7221 400.282 34.2721C410.249 37.8221 418.851 42.6692 426.087 48.8135C433.461 54.9577 439.195 62.1942 443.291 70.5231C447.387 78.8519 449.436 87.7952 449.436 97.3529C449.436 106.911 447.319 115.786 443.086 123.978C438.99 132.17 433.324 139.27 426.087 145.278C418.851 151.286 410.249 155.996 400.282 159.41C390.314 162.823 379.596 164.53 368.127 164.53C356.794 164.53 346.212 162.823 336.382 159.41C326.551 155.996 317.949 151.286 310.576 145.278C303.203 139.27 297.4 132.17 293.167 123.978C288.935 115.786 286.818 106.911 286.818 97.3529ZM317.13 97.3529C317.13 103.087 318.427 108.549 321.021 113.737C323.752 118.789 327.438 123.227 332.081 127.05C336.723 130.737 342.048 133.74 348.056 136.062C354.2 138.246 360.754 139.338 367.717 139.338C374.817 139.338 381.508 138.314 387.788 136.266C394.069 134.082 399.531 131.146 404.173 127.46C408.952 123.773 412.707 119.404 415.437 114.352C418.168 109.163 419.534 103.497 419.534 97.3529C419.534 91.6183 418.236 86.1567 415.642 80.9683C413.048 75.6433 409.43 71.001 404.787 67.0413C400.145 63.0817 394.684 59.9413 388.403 57.6202C382.259 55.299 375.5 54.1385 368.127 54.1385C361.027 54.1385 354.336 55.299 348.056 57.6202C341.911 59.9413 336.518 63.15 331.876 67.2462C327.37 71.2058 323.752 75.7798 321.021 80.9683C318.427 86.1567 317.13 91.6183 317.13 97.3529ZM466.625 97.3529C466.625 87.9317 468.741 79.0567 472.974 70.7279C477.207 62.399 483.01 55.1625 490.383 49.0183C497.756 42.874 506.358 38.0269 516.188 34.4769C526.019 30.7904 536.601 28.9471 547.934 28.9471C559.539 28.9471 570.258 30.7221 580.088 34.2721C590.056 37.8221 598.658 42.6692 605.894 48.8135C613.267 54.9577 619.002 62.1942 623.098 70.5231C627.194 78.8519 629.242 87.7952 629.242 97.3529C629.242 106.911 627.126 115.786 622.893 123.978C618.797 132.17 613.131 139.27 605.894 145.278C598.658 151.286 590.056 155.996 580.088 159.41C570.121 162.823 559.403 164.53 547.934 164.53C536.601 164.53 526.019 162.823 516.188 159.41C506.358 155.996 497.756 151.286 490.383 145.278C483.01 139.27 477.207 132.17 472.974 123.978C468.741 115.786 466.625 106.911 466.625 97.3529ZM496.936 97.3529C496.936 103.087 498.234 108.549 500.828 113.737C503.559 118.789 507.245 123.227 511.887 127.05C516.53 130.737 521.855 133.74 527.862 136.062C534.007 138.246 540.561 139.338 547.524 139.338C554.624 139.338 561.314 138.314 567.595 136.266C573.876 134.082 579.337 131.146 583.98 127.46C588.759 123.773 592.513 119.404 595.244 114.352C597.975 109.163 599.34 103.497 599.34 97.3529C599.34 91.6183 598.043 86.1567 595.449 80.9683C592.855 75.6433 589.236 71.001 584.594 67.0413C579.952 63.0817 574.49 59.9413 568.21 57.6202C562.065 55.299 555.307 54.1385 547.934 54.1385C540.834 54.1385 534.143 55.299 527.862 57.6202C521.718 59.9413 516.325 63.15 511.683 67.2462C507.177 71.2058 503.559 75.7798 500.828 80.9683C498.234 86.1567 496.936 91.6183 496.936 97.3529ZM683.502 34.2721V93.4615L744.33 34.2721H783.858L721.391 96.124L783.858 159H744.33L683.502 99.8106V159H650.118V34.2721H683.502Z" fill="#F14A16"/>
<path d="M128.923 73.3904L126.173 72.1905L126.164 72.2117L126.155 72.233L128.923 73.3904ZM142.645 53.524L144.741 55.6702L144.742 55.6696L142.645 53.524ZM164.15 39.5971L165.287 42.373L165.299 42.3684L165.31 42.3637L164.15 39.5971ZM265.939 34.2721H268.939V31.2721H265.939V34.2721ZM265.939 56.1865V59.1865H268.939V56.1865H265.939ZM179.92 59.6683L181.229 62.3677L181.245 62.3597L181.261 62.3515L179.92 59.6683ZM167.222 68.6798L165.138 66.5216L165.119 66.5399L165.1 66.5585L167.222 68.6798ZM157.596 81.7875L154.943 80.3872L154.935 80.4013L154.928 80.4155L157.596 81.7875ZM157.596 111.485L154.912 112.826L154.92 112.841L154.928 112.857L157.596 111.485ZM167.017 124.387L164.896 126.509L164.914 126.527L164.933 126.546L167.017 124.387ZM180.125 133.604L181.435 130.905L181.435 130.905L180.125 133.604ZM265.939 137.086H268.939V134.086H265.939V137.086ZM265.939 159V162H268.939V159H265.939ZM162.716 153.47L161.464 156.197L161.483 156.205L161.502 156.213L162.716 153.47ZM141.621 138.724L139.451 140.795L139.451 140.795L141.621 138.724ZM128.513 118.653L125.717 119.74L125.726 119.763L125.735 119.785L128.513 118.653ZM127.212 96.7385C127.212 89.0843 128.702 81.6947 131.69 74.5478L126.155 72.233C122.863 80.1053 121.212 88.2811 121.212 96.7385H127.212ZM131.672 74.5902C134.794 67.4358 139.146 61.1349 144.741 55.6702L140.549 51.3779C134.401 57.3824 129.605 64.3257 126.173 72.1905L131.672 74.5902ZM144.742 55.6696C150.454 50.0872 157.29 45.6506 165.287 42.373L163.012 36.8212C154.352 40.3705 146.851 45.2186 140.548 51.3785L144.742 55.6696ZM165.31 42.3637C173.368 38.9846 182.32 37.2721 192.208 37.2721V31.2721C181.616 31.2721 171.862 33.1096 162.989 36.8305L165.31 42.3637ZM192.208 37.2721H265.939V31.2721H192.208V37.2721ZM262.939 34.2721V56.1865H268.939V34.2721H262.939ZM265.939 53.1865H193.027V59.1865H265.939V53.1865ZM193.027 53.1865C188.358 53.1865 183.529 54.5097 178.578 56.985L181.261 62.3515C185.595 60.1846 189.505 59.1865 193.027 59.1865V53.1865ZM178.611 56.9688C173.793 59.3048 169.303 62.5 165.138 66.5216L169.305 70.838C173.059 67.2135 177.035 64.401 181.229 62.3677L178.611 56.9688ZM165.1 66.5585C161.059 70.5999 157.673 75.2137 154.943 80.3872L160.249 83.1878C162.707 78.5305 165.738 74.4059 169.343 70.8011L165.1 66.5585ZM154.928 80.4155C152.266 85.5909 150.909 90.9742 150.909 96.5337H156.909C156.909 91.9893 158.01 87.5417 160.264 83.1595L154.928 80.4155ZM150.909 96.5337C150.909 102.091 152.265 107.532 154.912 112.826L160.279 110.143C158.011 105.607 156.909 101.08 156.909 96.5337H150.909ZM154.928 112.857C157.529 117.914 160.854 122.467 164.896 126.509L169.138 122.266C165.534 118.662 162.578 114.613 160.264 110.113L154.928 112.857ZM164.933 126.546C169.112 130.581 173.74 133.838 178.814 136.302L181.435 130.905C176.951 128.727 172.841 125.841 169.101 122.229L164.933 126.546ZM178.814 136.302C183.955 138.8 189.18 140.086 194.461 140.086V134.086C190.185 134.086 185.852 133.05 181.435 130.905L178.814 136.302ZM194.461 140.086H265.939V134.086H194.461V140.086ZM262.939 137.086V159H268.939V137.086H262.939ZM265.939 156H191.594V162H265.939V156ZM191.594 156C181.007 156 171.808 154.214 163.93 150.727L161.502 156.213C170.281 160.1 180.334 162 191.594 162V156ZM163.967 150.744C155.948 147.063 149.238 142.359 143.791 136.653L139.451 140.795C145.473 147.105 152.826 152.232 161.464 156.197L163.967 150.744ZM143.791 136.653C138.305 130.905 134.147 124.531 131.291 117.521L125.735 119.785C128.887 127.521 133.468 134.527 139.451 140.795L143.791 136.653ZM131.309 117.566C128.564 110.507 127.212 103.57 127.212 96.7385H121.212C121.212 104.38 122.728 112.053 125.717 119.74L131.309 117.566ZM293.167 70.7279L290.493 69.3687L290.493 69.3687L293.167 70.7279ZM310.576 49.0183L312.496 51.3229L312.496 51.3229L310.576 49.0183ZM336.382 34.4769L337.401 37.2986L337.418 37.2923L337.435 37.2859L336.382 34.4769ZM400.282 34.2721L399.263 37.0938L399.275 37.0982L400.282 34.2721ZM426.087 48.8135L424.146 51.1003L424.156 51.1093L424.167 51.1181L426.087 48.8135ZM443.291 70.5231L445.983 69.1991L445.983 69.1991L443.291 70.5231ZM443.086 123.978L440.421 122.601L440.412 122.618L440.403 122.636L443.086 123.978ZM426.087 145.278L428.004 147.586L428.004 147.586L426.087 145.278ZM400.282 159.41L401.254 162.248L401.254 162.248L400.282 159.41ZM336.382 159.41L335.398 162.244L335.398 162.244L336.382 159.41ZM310.576 145.278L308.681 147.604L308.681 147.604L310.576 145.278ZM293.167 123.978L295.833 122.601L295.833 122.601L293.167 123.978ZM321.021 113.737L318.338 115.079L318.359 115.122L318.382 115.164L321.021 113.737ZM332.081 127.05L330.174 129.366L330.194 129.383L330.215 129.399L332.081 127.05ZM348.056 136.062L346.975 138.86L347.012 138.875L347.051 138.888L348.056 136.062ZM387.788 136.266L388.718 139.119L388.746 139.109L388.774 139.1L387.788 136.266ZM404.173 127.46L402.341 125.084L402.324 125.097L402.307 125.11L404.173 127.46ZM415.437 114.352L418.077 115.778L418.084 115.764L418.092 115.749L415.437 114.352ZM415.642 80.9683L412.945 82.2822L412.952 82.2961L412.959 82.3099L415.642 80.9683ZM404.787 67.0413L406.734 64.7588L406.734 64.7588L404.787 67.0413ZM388.403 57.6202L387.343 60.4266L387.353 60.4304L387.363 60.4342L388.403 57.6202ZM348.056 57.6202L347.016 54.8062L347.006 54.8099L346.996 54.8138L348.056 57.6202ZM331.876 67.2462L333.856 69.4997L333.861 69.4957L331.876 67.2462ZM321.021 80.9683L318.366 79.571L318.352 79.5987L318.338 79.6266L321.021 80.9683ZM289.818 97.3529C289.818 88.4 291.825 79.9911 295.842 72.087L290.493 69.3687C286.044 78.1223 283.818 87.4635 283.818 97.3529H289.818ZM295.842 72.087C299.885 64.1313 305.427 57.2137 312.496 51.3229L308.655 46.7136C300.978 53.1113 294.915 60.6668 290.493 69.3687L295.842 72.087ZM312.496 51.3229C319.578 45.4212 327.869 40.7406 337.401 37.2986L335.363 31.6553C325.233 35.3133 316.319 40.3268 308.655 46.7136L312.496 51.3229ZM337.435 37.2859C346.903 33.7354 357.125 31.9471 368.127 31.9471V25.9471C356.463 25.9471 345.522 27.8454 335.328 31.6679L337.435 37.2859ZM368.127 31.9471C379.423 31.9471 389.793 33.6741 399.263 37.0938L401.301 31.4504C391.109 27.7702 380.042 25.9471 368.127 25.9471V31.9471ZM399.275 37.0982C408.94 40.5404 417.216 45.2163 424.146 51.1003L428.029 46.5266C420.486 40.1222 411.558 35.1038 401.288 31.446L399.275 37.0982ZM424.167 51.1181C431.228 57.0025 436.695 63.9085 440.599 71.847L445.983 69.1991C441.695 60.48 435.693 52.9128 428.008 46.5088L424.167 51.1181ZM440.599 71.847C444.487 79.7515 446.436 88.2402 446.436 97.3529H452.436C452.436 87.3502 450.288 77.9524 445.983 69.1991L440.599 71.847ZM446.436 97.3529C446.436 106.45 444.426 114.85 440.421 122.601L445.752 125.355C450.213 116.721 452.436 107.372 452.436 97.3529H446.436ZM440.403 122.636C436.498 130.447 431.097 137.22 424.171 142.97L428.004 147.586C435.551 141.32 441.483 133.894 445.77 125.32L440.403 122.636ZM424.171 142.97C417.246 148.719 408.974 153.262 399.31 156.571L401.254 162.248C411.524 158.731 420.456 153.853 428.004 147.586L424.171 142.97ZM399.31 156.571C389.682 159.869 379.295 161.53 368.127 161.53V167.53C379.898 167.53 390.947 165.777 401.254 162.248L399.31 156.571ZM368.127 161.53C357.099 161.53 346.853 159.87 337.366 156.576L335.398 162.244C345.572 165.776 356.489 167.53 368.127 167.53V161.53ZM337.366 156.576C327.835 153.266 319.548 148.719 312.471 142.952L308.681 147.604C316.35 153.853 325.267 158.726 335.398 162.244L337.366 156.576ZM312.471 142.952C305.407 137.196 299.87 130.416 295.833 122.601L290.502 125.355C294.93 133.925 300.999 141.344 308.681 147.604L312.471 142.952ZM295.833 122.601C291.828 114.85 289.818 106.45 289.818 97.3529H283.818C283.818 107.372 286.041 116.721 290.502 125.355L295.833 122.601ZM314.13 97.3529C314.13 103.559 315.538 109.479 318.338 115.079L323.704 112.396C321.316 107.619 320.13 102.616 320.13 97.3529H314.13ZM318.382 115.164C321.306 120.573 325.246 125.308 330.174 129.366L333.988 124.734C329.63 121.146 326.198 117.006 323.66 112.311L318.382 115.164ZM330.215 129.399C335.114 133.29 340.708 136.439 346.975 138.86L349.137 133.263C343.388 131.042 338.332 128.183 333.946 124.701L330.215 129.399ZM347.051 138.888C353.539 141.195 360.435 142.338 367.717 142.338V136.338C361.073 136.338 354.861 135.297 349.061 133.235L347.051 138.888ZM367.717 142.338C375.11 142.338 382.116 141.272 388.718 139.119L386.858 133.414C380.9 135.357 374.525 136.338 367.717 136.338V142.338ZM388.774 139.1C395.335 136.818 401.102 133.729 406.039 129.809L402.307 125.11C397.959 128.563 392.804 131.346 386.803 133.433L388.774 139.1ZM406.005 129.835C411.099 125.905 415.136 121.218 418.077 115.778L412.798 112.925C410.277 117.589 406.804 121.641 402.341 125.084L406.005 129.835ZM418.092 115.749C421.061 110.109 422.534 103.96 422.534 97.3529H416.534C416.534 103.034 415.276 108.218 412.783 112.955L418.092 115.749ZM422.534 97.3529C422.534 91.147 421.126 85.2266 418.326 79.6266L412.959 82.3099C415.347 87.0868 416.534 92.0896 416.534 97.3529H422.534ZM418.339 79.6544C415.559 73.9471 411.681 68.978 406.734 64.7588L402.841 69.3238C407.179 73.0239 410.537 77.3395 412.945 82.2822L418.339 79.6544ZM406.734 64.7588C401.798 60.5488 396.023 57.2379 389.443 54.8062L387.363 60.4342C393.345 62.6448 398.492 65.6147 402.841 69.3238L406.734 64.7588ZM389.463 54.8138C382.941 52.3499 375.818 51.1385 368.127 51.1385V57.1385C375.182 57.1385 381.576 58.2482 387.343 60.4266L389.463 54.8138ZM368.127 51.1385C360.694 51.1385 353.649 52.3547 347.016 54.8062L349.096 60.4342C355.024 58.2433 361.36 57.1385 368.127 57.1385V51.1385ZM346.996 54.8138C340.533 57.2552 334.822 60.6461 329.891 64.9966L333.861 69.4957C338.215 65.6538 343.29 62.6274 349.116 60.4266L346.996 54.8138ZM329.896 64.9927C325.121 69.1884 321.272 74.0508 318.366 79.571L323.676 82.3655C326.232 77.5088 329.619 73.2231 333.856 69.4996L329.896 64.9927ZM318.338 79.6266C315.538 85.2267 314.13 91.147 314.13 97.3529H320.13C320.13 92.0896 321.316 87.0868 323.704 82.3099L318.338 79.6266ZM472.974 70.7279L470.3 69.3687L470.3 69.3687L472.974 70.7279ZM490.383 49.0183L492.303 51.3229L492.303 51.3229L490.383 49.0183ZM516.188 34.4769L517.207 37.2986L517.225 37.2923L517.242 37.2859L516.188 34.4769ZM580.088 34.2721L579.069 37.0938L579.082 37.0982L580.088 34.2721ZM605.894 48.8135L603.952 51.1003L603.963 51.1093L603.974 51.1181L605.894 48.8135ZM623.098 70.5231L625.79 69.1991L625.79 69.1991L623.098 70.5231ZM622.893 123.978L620.228 122.601L620.219 122.618L620.21 122.636L622.893 123.978ZM605.894 145.278L607.81 147.586L607.81 147.586L605.894 145.278ZM580.088 159.41L581.06 162.248L581.06 162.248L580.088 159.41ZM516.188 159.41L515.204 162.244L515.204 162.244L516.188 159.41ZM490.383 145.278L488.488 147.604L488.488 147.604L490.383 145.278ZM472.974 123.978L475.639 122.601L475.639 122.601L472.974 123.978ZM500.828 113.737L498.145 115.079L498.166 115.122L498.189 115.164L500.828 113.737ZM511.887 127.05L509.98 129.366L510.001 129.383L510.022 129.399L511.887 127.05ZM527.862 136.062L526.781 138.86L526.819 138.875L526.857 138.888L527.862 136.062ZM567.595 136.266L568.525 139.119L568.553 139.109L568.581 139.1L567.595 136.266ZM583.98 127.46L582.147 125.084L582.131 125.097L582.114 125.11L583.98 127.46ZM595.244 114.352L597.883 115.778L597.891 115.764L597.899 115.749L595.244 114.352ZM595.449 80.9683L592.752 82.2822L592.759 82.2961L592.766 82.3099L595.449 80.9683ZM584.594 67.0413L586.541 64.7588L586.541 64.7588L584.594 67.0413ZM568.21 57.6202L567.149 60.4266L567.159 60.4304L567.17 60.4342L568.21 57.6202ZM527.862 57.6202L526.822 54.8062L526.812 54.8099L526.802 54.8138L527.862 57.6202ZM511.683 67.2462L513.663 69.4997L513.667 69.4957L511.683 67.2462ZM500.828 80.9683L498.173 79.571L498.159 79.5987L498.145 79.6266L500.828 80.9683ZM469.625 97.3529C469.625 88.4 471.632 79.9911 475.648 72.087L470.3 69.3687C465.851 78.1223 463.625 87.4635 463.625 97.3529H469.625ZM475.648 72.087C479.692 64.1313 485.234 57.2137 492.303 51.3229L488.462 46.7136C480.785 53.1113 474.722 60.6668 470.3 69.3687L475.648 72.087ZM492.303 51.3229C499.385 45.4212 507.676 40.7406 517.207 37.2986L515.169 31.6553C505.04 35.3133 496.126 40.3268 488.462 46.7136L492.303 51.3229ZM517.242 37.2859C526.71 33.7354 536.932 31.9471 547.934 31.9471V25.9471C536.27 25.9471 525.328 27.8454 515.135 31.6679L517.242 37.2859ZM547.934 31.9471C559.23 31.9471 569.6 33.6741 579.069 37.0938L581.107 31.4504C570.916 27.7702 559.849 25.9471 547.934 25.9471V31.9471ZM579.082 37.0982C588.746 40.5404 597.022 45.2163 603.952 51.1003L607.836 46.5266C600.293 40.1222 591.365 35.1038 581.095 31.446L579.082 37.0982ZM603.974 51.1181C611.035 57.0025 616.502 63.9085 620.406 71.847L625.79 69.1991C621.502 60.48 615.5 52.9128 607.815 46.5088L603.974 51.1181ZM620.406 71.847C624.293 79.7515 626.242 88.2402 626.242 97.3529H632.242C632.242 87.3502 630.095 77.9524 625.79 69.1991L620.406 71.847ZM626.242 97.3529C626.242 106.45 624.233 114.85 620.228 122.601L625.558 125.355C630.019 116.721 632.242 107.372 632.242 97.3529H626.242ZM620.21 122.636C616.305 130.447 610.903 137.22 603.978 142.97L607.81 147.586C615.358 141.32 621.289 133.894 625.576 125.32L620.21 122.636ZM603.978 142.97C597.053 148.719 588.781 153.262 579.116 156.571L581.06 162.248C591.331 158.731 600.262 153.853 607.81 147.586L603.978 142.97ZM579.116 156.571C569.488 159.869 559.101 161.53 547.934 161.53V167.53C559.704 167.53 570.754 165.777 581.06 162.248L579.116 156.571ZM547.934 161.53C536.906 161.53 526.66 159.87 517.172 156.576L515.204 162.244C525.379 165.776 536.296 167.53 547.934 167.53V161.53ZM517.172 156.576C507.642 153.266 499.355 148.719 492.278 142.952L488.488 147.604C496.157 153.853 505.074 158.726 515.204 162.244L517.172 156.576ZM492.278 142.952C485.213 137.196 479.677 130.416 475.639 122.601L470.309 125.355C474.736 133.925 480.806 141.344 488.488 147.604L492.278 142.952ZM475.639 122.601C471.635 114.85 469.625 106.45 469.625 97.3529H463.625C463.625 107.372 465.848 116.721 470.309 125.355L475.639 122.601ZM493.936 97.3529C493.936 103.559 495.345 109.479 498.145 115.079L503.511 112.396C501.123 107.619 499.936 102.616 499.936 97.3529H493.936ZM498.189 115.164C501.112 120.573 505.053 125.308 509.98 129.366L513.795 124.734C509.437 121.146 506.005 117.006 503.467 112.311L498.189 115.164ZM510.022 129.399C514.921 133.29 520.515 136.439 526.781 138.86L528.944 133.263C523.194 131.042 518.138 128.183 513.753 124.701L510.022 129.399ZM526.857 138.888C533.346 141.195 540.241 142.338 547.524 142.338V136.338C540.88 136.338 534.668 135.297 528.867 133.235L526.857 138.888ZM547.524 142.338C554.916 142.338 561.922 141.272 568.525 139.119L566.665 133.414C560.706 135.357 554.332 136.338 547.524 136.338V142.338ZM568.581 139.1C575.142 136.818 580.909 133.729 585.845 129.809L582.114 125.11C577.766 128.563 572.61 131.346 566.61 133.433L568.581 139.1ZM585.812 129.835C590.906 125.905 594.943 121.218 597.883 115.778L592.605 112.925C590.084 117.589 586.611 121.641 582.147 125.084L585.812 129.835ZM597.899 115.749C600.867 110.109 602.34 103.96 602.34 97.3529H596.34C596.34 103.034 595.082 108.218 592.589 112.955L597.899 115.749ZM602.34 97.3529C602.34 91.147 600.932 85.2266 598.132 79.6266L592.766 82.3099C595.154 87.0868 596.34 92.0896 596.34 97.3529H602.34ZM598.146 79.6544C595.365 73.9471 591.488 68.978 586.541 64.7588L582.647 69.3238C586.985 73.0239 590.344 77.3395 592.752 82.2822L598.146 79.6544ZM586.541 64.7588C581.605 60.5488 575.829 57.2379 569.25 54.8062L567.17 60.4342C573.151 62.6448 578.299 65.6147 582.647 69.3238L586.541 64.7588ZM569.27 54.8138C562.748 52.3499 555.625 51.1385 547.934 51.1385V57.1385C554.989 57.1385 561.383 58.2482 567.149 60.4266L569.27 54.8138ZM547.934 51.1385C540.5 51.1385 533.456 52.3547 526.822 54.8062L528.902 60.4342C534.831 58.2433 541.167 57.1385 547.934 57.1385V51.1385ZM526.802 54.8138C520.34 57.2552 514.628 60.6461 509.698 64.9966L513.667 69.4957C518.022 65.6538 523.097 62.6274 528.923 60.4266L526.802 54.8138ZM509.702 64.9927C504.928 69.1884 501.078 74.0508 498.173 79.571L503.483 82.3655C506.039 77.5088 509.426 73.2231 513.663 69.4996L509.702 64.9927ZM498.145 79.6266C495.345 85.2267 493.936 91.147 493.936 97.3529H499.936C499.936 92.0896 501.123 87.0868 503.511 82.3099L498.145 79.6266ZM683.502 34.2721H686.502V31.2721H683.502V34.2721ZM683.502 93.4615H680.502V100.567L685.594 95.6116L683.502 93.4615ZM744.33 34.2721V31.2721H743.111L742.238 32.122L744.33 34.2721ZM783.858 34.2721L785.968 36.4039L791.151 31.2721H783.858V34.2721ZM721.391 96.124L719.281 93.9923L717.145 96.1066L719.263 98.2384L721.391 96.124ZM783.858 159V162H791.067L785.986 156.886L783.858 159ZM744.33 159L742.238 161.15L743.111 162H744.33V159ZM683.502 99.8106L685.594 97.6605L680.502 92.7055V99.8106H683.502ZM683.502 159V162H686.502V159H683.502ZM650.118 159H647.118V162H650.118V159ZM650.118 34.2721V31.2721H647.118V34.2721H650.118ZM680.502 34.2721V93.4615H686.502V34.2721H680.502ZM685.594 95.6116L746.422 36.4222L742.238 32.122L681.41 91.3115L685.594 95.6116ZM744.33 37.2721H783.858V31.2721H744.33V37.2721ZM781.747 32.1403L719.281 93.9923L723.502 98.2558L785.968 36.4039L781.747 32.1403ZM719.263 98.2384L781.729 161.114L785.986 156.886L723.52 94.0097L719.263 98.2384ZM783.858 156H744.33V162H783.858V156ZM746.422 156.85L685.594 97.6605L681.41 101.961L742.238 161.15L746.422 156.85ZM680.502 99.8106V159H686.502V99.8106H680.502ZM683.502 156H650.118V162H683.502V156ZM653.118 159V34.2721H647.118V159H653.118ZM650.118 37.2721H683.502V31.2721H650.118V37.2721Z" fill="#E14210" mask="url(#path-1-outside-1_19_30)"/>
<mask id="path-3-outside-2_19_30" maskUnits="userSpaceOnUse" x="119" y="244" width="457" height="143" fill="black">
<rect fill="white" x="119" y="244" width="457" height="143"/>
<path d="M122.6 316.353C122.6 306.932 124.717 298.057 128.949 289.728C133.182 281.399 138.985 274.162 146.358 268.018C153.731 261.874 162.333 257.027 172.164 253.477C181.995 249.79 192.576 247.947 203.909 247.947C215.515 247.947 226.233 249.722 236.064 253.272C246.031 256.822 254.633 261.669 261.87 267.813C269.243 273.958 274.977 281.194 279.074 289.523C283.17 297.852 285.218 306.795 285.218 316.353C285.218 325.911 283.101 334.786 278.869 342.978C274.773 351.17 269.106 358.27 261.87 364.278C254.633 370.286 246.031 374.996 236.064 378.41C226.097 381.823 215.378 383.53 203.909 383.53C192.576 383.53 181.995 381.823 172.164 378.41C162.333 374.996 153.731 370.286 146.358 364.278C138.985 358.27 133.182 351.17 128.949 342.978C124.717 334.786 122.6 325.911 122.6 316.353ZM152.912 316.353C152.912 322.087 154.209 327.549 156.803 332.737C159.534 337.789 163.221 342.227 167.863 346.05C172.505 349.737 177.83 352.74 183.838 355.062C189.982 357.246 196.536 358.338 203.499 358.338C210.6 358.338 217.29 357.314 223.571 355.266C229.851 353.082 235.313 350.146 239.955 346.46C244.734 342.773 248.489 338.404 251.22 333.352C253.95 328.163 255.316 322.497 255.316 316.353C255.316 310.618 254.019 305.157 251.424 299.968C248.83 294.643 245.212 290.001 240.57 286.041C235.927 282.082 230.466 278.941 224.185 276.62C218.041 274.299 211.282 273.138 203.909 273.138C196.809 273.138 190.119 274.299 183.838 276.62C177.694 278.941 172.3 282.15 167.658 286.246C163.152 290.206 159.534 294.78 156.803 299.968C154.209 305.157 152.912 310.618 152.912 316.353ZM306.094 378V301.402H415.871V323.112H339.477V378H306.094ZM306.094 253.272H426.93V275.187H306.094V253.272ZM451.499 378V301.402H561.276V323.112H484.883V378H451.499ZM451.499 253.272H572.336V275.187H451.499V253.272Z"/>
</mask>
<path d="M122.6 316.353C122.6 306.932 124.717 298.057 128.949 289.728C133.182 281.399 138.985 274.162 146.358 268.018C153.731 261.874 162.333 257.027 172.164 253.477C181.995 249.79 192.576 247.947 203.909 247.947C215.515 247.947 226.233 249.722 236.064 253.272C246.031 256.822 254.633 261.669 261.87 267.813C269.243 273.958 274.977 281.194 279.074 289.523C283.17 297.852 285.218 306.795 285.218 316.353C285.218 325.911 283.101 334.786 278.869 342.978C274.773 351.17 269.106 358.27 261.87 364.278C254.633 370.286 246.031 374.996 236.064 378.41C226.097 381.823 215.378 383.53 203.909 383.53C192.576 383.53 181.995 381.823 172.164 378.41C162.333 374.996 153.731 370.286 146.358 364.278C138.985 358.27 133.182 351.17 128.949 342.978C124.717 334.786 122.6 325.911 122.6 316.353ZM152.912 316.353C152.912 322.087 154.209 327.549 156.803 332.737C159.534 337.789 163.221 342.227 167.863 346.05C172.505 349.737 177.83 352.74 183.838 355.062C189.982 357.246 196.536 358.338 203.499 358.338C210.6 358.338 217.29 357.314 223.571 355.266C229.851 353.082 235.313 350.146 239.955 346.46C244.734 342.773 248.489 338.404 251.22 333.352C253.95 328.163 255.316 322.497 255.316 316.353C255.316 310.618 254.019 305.157 251.424 299.968C248.83 294.643 245.212 290.001 240.57 286.041C235.927 282.082 230.466 278.941 224.185 276.62C218.041 274.299 211.282 273.138 203.909 273.138C196.809 273.138 190.119 274.299 183.838 276.62C177.694 278.941 172.3 282.15 167.658 286.246C163.152 290.206 159.534 294.78 156.803 299.968C154.209 305.157 152.912 310.618 152.912 316.353ZM306.094 378V301.402H415.871V323.112H339.477V378H306.094ZM306.094 253.272H426.93V275.187H306.094V253.272ZM451.499 378V301.402H561.276V323.112H484.883V378H451.499ZM451.499 253.272H572.336V275.187H451.499V253.272Z" fill="#F14A16"/>
<path d="M128.949 289.728L126.275 288.369L126.275 288.369L128.949 289.728ZM146.358 268.018L148.279 270.323L148.279 270.323L146.358 268.018ZM172.164 253.477L173.183 256.299L173.2 256.292L173.217 256.286L172.164 253.477ZM236.064 253.272L235.045 256.094L235.057 256.098L236.064 253.272ZM261.87 267.813L259.928 270.1L259.939 270.109L259.949 270.118L261.87 267.813ZM279.074 289.523L281.766 288.199L281.766 288.199L279.074 289.523ZM278.869 342.978L276.203 341.601L276.194 341.618L276.185 341.636L278.869 342.978ZM261.87 364.278L263.786 366.586L263.786 366.586L261.87 364.278ZM236.064 378.41L237.036 381.248L237.036 381.248L236.064 378.41ZM172.164 378.41L171.18 381.244L171.18 381.244L172.164 378.41ZM146.358 364.278L144.463 366.604L144.463 366.604L146.358 364.278ZM128.949 342.978L131.615 341.601L131.615 341.601L128.949 342.978ZM156.803 332.737L154.12 334.079L154.141 334.122L154.164 334.164L156.803 332.737ZM167.863 346.05L165.956 348.366L165.976 348.383L165.997 348.399L167.863 346.05ZM183.838 355.062L182.757 357.86L182.795 357.875L182.833 357.888L183.838 355.062ZM223.571 355.266L224.501 358.119L224.529 358.109L224.556 358.1L223.571 355.266ZM239.955 346.46L238.123 344.084L238.106 344.097L238.09 344.11L239.955 346.46ZM251.22 333.352L253.859 334.778L253.867 334.764L253.874 334.749L251.22 333.352ZM251.424 299.968L248.728 301.282L248.734 301.296L248.741 301.31L251.424 299.968ZM240.57 286.041L242.517 283.759L242.517 283.759L240.57 286.041ZM224.185 276.62L223.125 279.427L223.135 279.43L223.145 279.434L224.185 276.62ZM183.838 276.62L182.798 273.806L182.788 273.81L182.778 273.814L183.838 276.62ZM167.658 286.246L169.639 288.5L169.643 288.496L167.658 286.246ZM156.803 299.968L154.149 298.571L154.134 298.599L154.12 298.627L156.803 299.968ZM125.6 316.353C125.6 307.4 127.607 298.991 131.624 291.087L126.275 288.369C121.826 297.122 119.6 306.463 119.6 316.353H125.6ZM131.624 291.087C135.667 283.131 141.21 276.214 148.279 270.323L144.438 265.714C136.76 272.111 130.697 279.667 126.275 288.369L131.624 291.087ZM148.279 270.323C155.361 264.421 163.651 259.741 173.183 256.299L171.145 250.655C161.015 254.313 152.102 259.327 144.438 265.714L148.279 270.323ZM173.217 256.286C182.685 252.735 192.907 250.947 203.909 250.947V244.947C192.245 244.947 181.304 246.845 171.111 250.668L173.217 256.286ZM203.909 250.947C215.206 250.947 225.575 252.674 235.045 256.094L237.083 250.45C226.891 246.77 215.824 244.947 203.909 244.947V250.947ZM235.057 256.098C244.722 259.54 252.998 264.216 259.928 270.1L263.811 265.527C256.268 259.122 247.341 254.104 237.07 250.446L235.057 256.098ZM259.949 270.118C267.01 276.003 272.477 282.908 276.381 290.847L281.766 288.199C277.477 279.48 271.475 271.913 263.79 265.509L259.949 270.118ZM276.381 290.847C280.269 298.751 282.218 307.24 282.218 316.353H288.218C288.218 306.35 286.07 296.952 281.766 288.199L276.381 290.847ZM282.218 316.353C282.218 325.45 280.208 333.85 276.203 341.601L281.534 344.355C285.995 335.721 288.218 326.372 288.218 316.353H282.218ZM276.185 341.636C272.28 349.447 266.879 356.22 259.953 361.97L263.786 366.586C271.334 360.32 277.265 352.894 281.552 344.32L276.185 341.636ZM259.953 361.97C253.029 367.719 244.756 372.262 235.092 375.571L237.036 381.248C247.306 377.731 256.238 372.853 263.786 366.586L259.953 361.97ZM235.092 375.571C225.464 378.869 215.077 380.53 203.909 380.53V386.53C215.68 386.53 226.729 384.777 237.036 381.248L235.092 375.571ZM203.909 380.53C192.882 380.53 182.635 378.87 173.148 375.576L171.18 381.244C181.354 384.776 192.271 386.53 203.909 386.53V380.53ZM173.148 375.576C163.617 372.266 155.33 367.719 148.253 361.952L144.463 366.604C152.132 372.853 161.049 377.726 171.18 381.244L173.148 375.576ZM148.253 361.952C141.189 356.196 135.653 349.416 131.615 341.601L126.284 344.355C130.712 352.925 136.781 360.344 144.463 366.604L148.253 361.952ZM131.615 341.601C127.61 333.85 125.6 325.45 125.6 316.353H119.6C119.6 326.372 121.823 335.721 126.284 344.355L131.615 341.601ZM149.912 316.353C149.912 322.559 151.32 328.479 154.12 334.079L159.487 331.396C157.098 326.619 155.912 321.616 155.912 316.353H149.912ZM154.164 334.164C157.088 339.573 161.029 344.308 165.956 348.366L169.77 343.734C165.413 340.146 161.98 336.006 159.442 331.311L154.164 334.164ZM165.997 348.399C170.897 352.29 176.491 355.439 182.757 357.86L184.919 352.263C179.17 350.042 174.114 347.183 169.729 343.701L165.997 348.399ZM182.833 357.888C189.321 360.195 196.217 361.338 203.499 361.338V355.338C196.855 355.338 190.643 354.297 184.843 352.235L182.833 357.888ZM203.499 361.338C210.892 361.338 217.898 360.272 224.501 358.119L222.641 352.414C216.682 354.357 210.307 355.338 203.499 355.338V361.338ZM224.556 358.1C231.117 355.818 236.884 352.729 241.821 348.809L238.09 344.11C233.741 347.563 228.586 350.346 222.585 352.433L224.556 358.1ZM241.788 348.835C246.882 344.905 250.918 340.218 253.859 334.778L248.581 331.925C246.06 336.589 242.587 340.641 238.123 344.084L241.788 348.835ZM253.874 334.749C256.843 329.109 258.316 322.96 258.316 316.353H252.316C252.316 322.034 251.058 327.218 248.565 331.955L253.874 334.749ZM258.316 316.353C258.316 310.147 256.908 304.227 254.108 298.627L248.741 301.31C251.13 306.087 252.316 311.09 252.316 316.353H258.316ZM254.121 298.654C251.341 292.947 247.463 287.978 242.517 283.759L238.623 288.324C242.961 292.024 246.32 296.339 248.728 301.282L254.121 298.654ZM242.517 283.759C237.581 279.549 231.805 276.238 225.225 273.806L223.145 279.434C229.127 281.645 234.274 284.615 238.623 288.324L242.517 283.759ZM225.245 273.814C218.723 271.35 211.6 270.138 203.909 270.138V276.138C210.964 276.138 217.358 277.248 223.125 279.427L225.245 273.814ZM203.909 270.138C196.476 270.138 189.431 271.355 182.798 273.806L184.878 279.434C190.806 277.243 197.142 276.138 203.909 276.138V270.138ZM182.778 273.814C176.315 276.255 170.604 279.646 165.673 283.997L169.643 288.496C173.997 284.654 179.072 281.627 184.898 279.427L182.778 273.814ZM165.678 283.993C160.903 288.188 157.054 293.051 154.149 298.571L159.458 301.366C162.014 296.509 165.401 292.223 169.638 288.5L165.678 283.993ZM154.12 298.627C151.32 304.227 149.912 310.147 149.912 316.353H155.912C155.912 311.09 157.098 306.087 159.487 301.31L154.12 298.627ZM306.094 378H303.094V381H306.094V378ZM306.094 301.402V298.402H303.094V301.402H306.094ZM415.871 301.402H418.871V298.402H415.871V301.402ZM415.871 323.112V326.112H418.871V323.112H415.871ZM339.477 323.112V320.112H336.477V323.112H339.477ZM339.477 378V381H342.477V378H339.477ZM306.094 253.272V250.272H303.094V253.272H306.094ZM426.93 253.272H429.93V250.272H426.93V253.272ZM426.93 275.187V278.187H429.93V275.187H426.93ZM306.094 275.187H303.094V278.187H306.094V275.187ZM309.094 378V301.402H303.094V378H309.094ZM306.094 304.402H415.871V298.402H306.094V304.402ZM412.871 301.402V323.112H418.871V301.402H412.871ZM415.871 320.112H339.477V326.112H415.871V320.112ZM336.477 323.112V378H342.477V323.112H336.477ZM339.477 375H306.094V381H339.477V375ZM306.094 256.272H426.93V250.272H306.094V256.272ZM423.93 253.272V275.187H429.93V253.272H423.93ZM426.93 272.187H306.094V278.187H426.93V272.187ZM309.094 275.187V253.272H303.094V275.187H309.094ZM451.499 378H448.499V381H451.499V378ZM451.499 301.402V298.402H448.499V301.402H451.499ZM561.276 301.402H564.276V298.402H561.276V301.402ZM561.276 323.112V326.112H564.276V323.112H561.276ZM484.883 323.112V320.112H481.883V323.112H484.883ZM484.883 378V381H487.883V378H484.883ZM451.499 253.272V250.272H448.499V253.272H451.499ZM572.336 253.272H575.336V250.272H572.336V253.272ZM572.336 275.187V278.187H575.336V275.187H572.336ZM451.499 275.187H448.499V278.187H451.499V275.187ZM454.499 378V301.402H448.499V378H454.499ZM451.499 304.402H561.276V298.402H451.499V304.402ZM558.276 301.402V323.112H564.276V301.402H558.276ZM561.276 320.112H484.883V326.112H561.276V320.112ZM481.883 323.112V378H487.883V323.112H481.883ZM484.883 375H451.499V381H484.883V375ZM451.499 256.272H572.336V250.272H451.499V256.272ZM569.336 253.272V275.187H575.336V253.272H569.336ZM572.336 272.187H451.499V278.187H572.336V272.187ZM454.499 275.187V253.272H448.499V275.187H454.499Z" fill="#E14210" mask="url(#path-3-outside-2_19_30)"/>
</g>
<g filter="url(#filter1_d_19_30)">
<path d="M349.885 578.199C349.885 591.196 346.94 603.381 341.051 614.754C335.161 625.924 327.038 635.773 316.681 644.303C306.323 652.629 293.935 659.229 279.516 664.103C265.3 668.774 249.866 671.11 233.213 671.11H124.766V638.515H247.531C251.999 638.515 256.771 637.499 261.848 635.469C266.925 633.235 271.799 630.392 276.47 626.939C281.141 623.284 285.507 619.12 289.569 614.449C293.631 609.779 296.982 604.905 299.622 599.827H124.766V485.593H249.663C265.707 485.593 279.923 488.436 292.311 494.122C304.902 499.606 315.462 506.815 323.992 515.751C332.521 524.686 338.918 534.638 343.183 545.604C347.651 556.571 349.885 567.436 349.885 578.199ZM172.897 566.928H303.886C302.059 560.632 299.114 554.54 295.052 548.65C290.991 542.761 286.218 537.582 280.735 533.114C275.455 528.647 269.768 525.093 263.676 522.452C257.583 519.609 251.491 518.188 245.398 518.188H172.897V566.928ZM380.902 638.515H430.556V671.11H380.902V638.515ZM461.69 579.417C461.69 565.405 464.837 552.204 471.133 539.816C477.429 527.428 486.06 516.665 497.026 507.526C507.993 498.387 520.787 491.178 535.409 485.897C550.031 480.414 565.77 477.672 582.626 477.672C599.888 477.672 615.83 480.313 630.452 485.593C645.277 490.873 658.072 498.082 668.835 507.221C679.802 516.36 688.331 527.123 694.424 539.512C700.516 551.9 703.563 565.202 703.563 579.417C703.563 593.633 700.415 606.834 694.119 619.019C688.027 631.204 679.599 641.764 668.835 650.7C658.072 659.636 645.277 666.642 630.452 671.719C615.627 676.796 599.685 679.335 582.626 679.335C565.77 679.335 550.031 676.796 535.409 671.719C520.787 666.642 507.993 659.636 497.026 650.7C486.06 641.764 477.429 631.204 471.133 619.019C464.837 606.834 461.69 593.633 461.69 579.417ZM506.774 579.417C506.774 593.633 511.75 606.021 521.701 616.582L607.605 518.797C599.888 516.36 591.562 515.141 582.626 515.141C572.066 515.141 562.115 516.868 552.773 520.32C543.634 523.773 535.612 528.545 528.707 534.638C522.006 540.527 516.624 547.33 512.562 555.047C508.704 562.765 506.774 570.888 506.774 579.417ZM659.087 579.417C659.087 565.405 654.213 552.915 644.465 541.949L560.388 639.124C567.293 640.952 574.503 641.866 582.017 641.866C592.577 641.866 602.528 640.343 611.87 637.296C621.212 634.047 629.335 629.681 636.24 624.197C643.348 618.714 648.933 612.216 652.995 604.701C657.056 596.984 659.087 588.556 659.087 579.417Z" fill="#F14A16"/>
<path d="M718.144 491.314L716.435 494.394C717.405 492.489 718.144 491.314 718.144 491.314Z" fill="#B7AB98"/>
<path d="M671.428 435.65L673.684 437.49C673.923 437.68 674.198 437.964 674.437 438.154C673.311 437.388 672.318 436.533 671.428 435.65Z" fill="#0D0D0D"/>
<path d="M693.293 443.181C699.335 442.551 704.784 439.882 710.65 438.481C722.554 435.684 736.16 438.359 745.963 445.557C727.93 446.192 709.965 446.86 691.932 447.496C687.72 447.624 684.789 446.379 682.025 444.525L674.71 438.438C680.036 442.048 686.879 443.862 693.293 443.181Z" fill="#0D0D0D"/>
<path d="M674.437 438.154C674.198 437.964 673.923 437.68 673.684 437.49L674.743 438.377C674.607 438.312 674.573 438.22 674.437 438.154Z" fill="#0D0D0D"/>
<path d="M622.162 333.94C622.162 333.94 627.594 324.16 644.085 317.137C660.576 310.114 699.817 320.21 716.476 335.567C733.133 350.923 726.666 367.694 732.175 372.842C737.716 377.93 767.562 389.728 777.663 414.404C787.767 439.081 773.007 450.596 773.011 455.561C773.013 460.526 785.309 478.766 774.505 505.838C763.701 532.909 725.53 520.881 716.648 514.198C710.226 509.301 713.923 499.381 716.432 494.393L718.144 491.314C718.144 491.314 717.405 492.489 716.432 494.393L693.638 535.447C693.638 535.447 674.361 542.362 631.739 520.801C589.116 499.241 574.584 477.414 574.584 477.414L601.235 429.418C601.235 429.418 580.145 411.947 577.836 398.397C575.493 384.908 580.861 357.686 591.745 345.543C602.865 333.437 622.162 333.94 622.162 333.94Z" fill="#B7AB98"/>
<path d="M622.162 333.94C622.162 333.94 627.594 324.16 644.085 317.137C660.576 310.114 699.819 320.211 716.476 335.567C718.871 337.779 720.754 339.976 722.334 342.257C715.218 340.007 707.499 339.15 700.031 339.71C685.84 340.88 672.741 347.077 662.409 355.588C654.743 361.935 648.384 369.974 646.722 379.337C645.059 388.701 649.112 399.417 658.288 404.483C663.763 396.328 669.41 388.025 678.064 382.533C686.62 377.069 699.003 375.112 708.113 380.452C706.282 389.964 697.498 396.617 691.272 404.261C685.044 411.905 681.6 423.855 689.566 430.634C696.777 436.749 707.937 434.514 717.613 433.862C732.351 432.951 747.567 437.234 759.417 445.561C759.294 451.841 750.996 455.29 744.061 454.577C737.127 453.864 730.714 450.499 723.81 449.266C716.903 448.033 708.426 449.944 706.568 455.931C705.604 458.908 706.245 462.879 703.301 464.453C700.969 465.706 697.835 464.516 695.413 463.285C680.48 456.006 665.479 448.695 650.513 441.477C646.319 439.4 641.717 437.28 636.999 437.702C633.026 438.021 629.61 440.133 626.571 442.348C618.899 447.928 612.429 454.922 607.732 462.761C606.86 464.177 606.057 465.78 606.374 467.382C606.656 468.738 607.649 469.9 608.675 470.848C614.458 476.433 622.129 480.017 629.393 483.865C645.147 492.147 659.797 502.268 672.859 513.846C674.227 515.11 675.664 516.407 676.388 518.052C677.357 520.346 676.731 522.874 675.762 525.084C674.126 528.809 671.432 531.952 668.189 534.529C658.832 532.431 646.777 528.359 631.875 520.865C589.252 499.306 574.72 477.479 574.72 477.479L601.371 429.483C601.371 429.483 580.281 412.012 577.972 398.462C575.629 384.972 581 357.751 591.881 345.608C602.865 333.437 622.162 333.94 622.162 333.94Z" fill="#A8A094"/>
<path d="M619.276 329.508C622.069 325.876 628.809 318.554 641.879 313.03C656.882 306.671 684.371 312.458 702.644 321.177C709.735 324.561 715.573 328.339 719.951 332.414C731.751 343.314 733.198 355.002 734.171 362.721C734.531 365.337 734.932 368.964 735.753 369.662C736.676 370.484 739.44 372.185 742.441 373.923C754.316 380.963 774.139 392.637 782.476 412.882C790.746 433.095 783.637 445.587 779.85 452.409C779.178 453.617 778.341 455.126 778.175 455.734C778.317 456.413 778.873 458.206 779.394 459.599C782.308 467.864 788.278 485.07 779.307 507.441C775.84 516.172 769.53 522.098 760.62 525.101C745.608 530.08 727.597 524.77 719.28 520.8C717.03 519.727 715.153 518.603 713.684 517.52C712.592 516.692 711.665 515.717 710.845 514.712L698.174 537.533C697.671 538.439 696.826 539.183 695.742 539.581C694.896 539.864 675.31 546.557 634.332 527.002C632.766 526.255 631.129 525.473 629.594 524.664C586.22 502.746 571.212 480.539 570.525 479.601C569.632 478.259 569.585 476.633 570.324 475.305L595.363 430.206C589.139 424.639 575.179 410.951 573.151 398.911C570.593 383.791 576.634 355.362 588.088 342.653C597.791 331.856 612.96 329.854 619.276 329.508ZM582.117 389.443C581.498 393.043 581.552 395.588 582.69 397.888C583.691 399.969 585.605 401.799 588.714 403.97C595.03 408.435 602.624 410.913 610.315 412.597C616.305 413.928 618.725 410.654 618.548 405.07C618.45 401.206 616.827 397.452 615.542 393.708C610.925 380.432 610.678 365.345 618.473 353.791C616.779 359.016 615.493 364.436 614.719 369.87C614.234 373.075 613.985 376.317 614.247 379.573C615.115 391.06 622.493 401.225 630.778 409.761C632.695 411.745 634.856 414.532 637.278 416.07C640.043 417.771 643.854 418.521 646.919 419.831C651.691 421.955 657.326 425.942 662.087 421.875C664.38 419.915 665.38 417.032 666.377 414.3C670.041 404.287 674.548 393.838 683.774 387.472C687.29 385.026 691.352 383.299 695.385 381.786C682.979 390.148 673.727 402.152 669.309 415.699C666.686 423.841 667.014 431.329 673.617 437.457L671.361 435.617C672.318 436.533 673.309 437.387 674.368 438.122C674.471 438.247 674.607 438.312 674.779 438.47C677.444 440.659 679.633 442.773 682.058 444.464L684.895 446.811C690.671 451.476 696.784 455.691 704.208 458.318C683.3 451.548 666.11 437.464 645.935 429.06C639.292 426.271 632.14 424.081 624.939 424.158C606.699 424.389 601.377 439.414 594.572 451.67C589.845 460.182 585.152 468.634 580.426 477.147C585.021 482.852 600.705 499.959 634.087 516.881C635.622 517.69 637.123 518.407 638.622 519.122C638.895 519.252 639.101 519.349 639.373 519.481C647.067 521.624 657.514 524.088 661.618 523.374C668.505 522.155 663.399 511.47 649.363 501.641C635.329 491.814 584.448 474.408 584.448 474.408C584.448 474.408 637.666 486.515 666.544 505.335C682.794 515.991 689.541 523.257 692.359 527.657C692.048 527.128 694.838 523.188 695.108 522.706C697.219 518.904 698.5 517.529 695.686 513.588C693.866 510.964 691.978 508.46 689.719 506.16C686.023 502.41 681.517 499.496 677.045 496.522C685.073 498.062 692.643 501.979 698.289 507.5C698.631 507.815 699.009 508.224 699.552 508.332C699.86 508.403 700.163 508.318 700.469 508.235C704.433 506.996 706.512 503.253 708.29 500.053C709.899 497.155 711.82 495.246 713.907 492.73C718.824 486.981 718.926 477.942 716.666 470.983C716.146 469.436 715.456 467.885 714.19 466.746C716.201 467.783 717.506 469.627 718.707 471.346C720.905 474.533 722.833 477.897 723.776 481.478C725.037 486.509 723.312 491.948 720.865 496.355C718.22 501.737 716.47 508.309 719.713 510.697C720.191 511.079 721.32 511.847 723.5 512.887C732.296 517.084 746.519 520.053 756.752 516.688C762.885 514.65 767.305 510.42 769.839 504.145C777.676 484.593 772.541 469.923 769.763 462.03C768.758 459.183 768.063 457.171 768.015 455.392C768.031 453.032 769.206 450.92 770.748 448.143C774.336 441.836 779.732 432.269 772.951 415.745C765.825 398.445 747.776 387.771 736.994 381.404C733.104 379.089 730.306 377.449 728.529 375.837C725.211 372.803 724.703 368.436 724.123 363.425C723.22 356.197 722.099 347.185 712.829 338.562C709.238 335.244 704.152 331.977 698.084 329.082C679.742 320.33 656.446 316.774 646.152 321.178C631.49 327.394 626.458 335.99 626.425 336.05C625.588 337.56 623.895 338.432 622.026 338.38C621.857 338.376 604.971 338.032 595.672 348.41C585.566 359.777 584.595 375.505 582.117 389.443Z" fill="#0D0D0D"/>
<path d="M660.869 322.015C669.966 321.316 679.296 324.24 686.84 329.139C687.797 329.748 688.787 330.449 689.269 331.443C689.752 332.437 689.659 333.691 688.713 334.309C681.286 331.376 672.51 329.785 665.366 332.866C662.521 334.106 660.19 335.972 657.86 337.839C655.228 339.942 652.593 342.045 649.958 344.149C648.44 345.333 646.986 346.549 645.09 347.171C643.261 347.825 640.984 347.885 639.312 346.858C637.777 345.896 636.982 344.219 636.767 342.589C636.371 339.727 637.335 336.903 638.777 334.461C643.14 327.225 651.769 322.713 660.869 322.015Z" fill="#0D0D0D"/>
<path d="M731.101 493.297C731.949 493.32 732.736 493.772 733.451 494.189C737.647 496.574 745.114 500.213 749.89 498.292C750.329 498.12 750.702 497.915 751.107 497.651C754.488 495.292 755.64 490.267 761.048 491.244C761.66 491.383 762.341 491.556 762.883 491.356C763.425 491.157 763.795 490.646 764.062 490.162C764.932 488.439 766.979 475.899 770.771 483.36C771.84 485.474 771.896 488.479 771.811 490.653C771.746 495.586 770.118 500.383 767.055 504.344C761.705 511.185 752.12 515.088 742.739 514.276C737.3 513.82 731.816 511.738 728.559 507.662C725.302 503.588 725.119 497.545 728.933 494.249C729.575 493.715 730.251 493.273 731.101 493.297Z" fill="#0D0D0D"/>
<path d="M697.73 599.293C705.876 581.824 690.5 540.293 690.5 540.293L689.5 537.793L688 534.793L686 531.793L682.499 527.793L673.499 519.793L667.999 514.793L656.999 506.293L644.499 498.293L630.999 491.793L609.999 483.793C609.999 483.793 604 480.793 595.5 478.293C594.376 477.963 590.5 477.5 590.5 477.5L588 477.5L585.5 477.5L582.23 477.5L570.999 478.293L559.499 480.793C559.499 480.793 515.999 492.293 500.499 506.293L542.23 523.783C545.666 516.415 571.821 513.783 582.23 512.293C592.638 510.803 606.962 516.365 618.246 521.627C629.53 526.889 648.181 538.362 653.73 547.293C659.279 556.224 664.666 577.424 661.23 584.793L697.73 599.293Z" fill="#F14A16"/>
</g>
<defs>
<filter id="filter0_d_19_30" x="110.6" y="20.9471" width="685.257" height="378.583" filterUnits="userSpaceOnUse" color-interpolation-filters="sRGB">
<feFlood flood-opacity="0" result="BackgroundImageFix"/>
<feColorMatrix in="SourceAlpha" type="matrix" values="0 0 0 0 0 0 0 0 0 0 0 0 0 0 0 0 0 0 127 0" result="hardAlpha"/>
<feOffset dy="4"/>
<feGaussianBlur stdDeviation="6"/>
<feComposite in2="hardAlpha" operator="out"/>
<feColorMatrix type="matrix" values="0 0 0 0 0 0 0 0 0 0 0 0 0 0 0 0 0 0 0.25 0"/>
<feBlend mode="normal" in2="BackgroundImageFix" result="effect1_dropShadow_19_30"/>
<feBlend mode="normal" in="SourceGraphic" in2="effect1_dropShadow_19_30" result="shape"/>
</filter>
<filter id="filter1_d_19_30" x="112.766" y="302.337" width="685.546" height="392.998" filterUnits="userSpaceOnUse" color-interpolation-filters="sRGB">
<feFlood flood-opacity="0" result="BackgroundImageFix"/>
<feColorMatrix in="SourceAlpha" type="matrix" values="0 0 0 0 0 0 0 0 0 0 0 0 0 0 0 0 0 0 127 0" result="hardAlpha"/>
<feOffset dy="4"/>
<feGaussianBlur stdDeviation="6"/>
<feComposite in2="hardAlpha" operator="out"/>
<feColorMatrix type="matrix" values="0 0 0 0 0 0 0 0 0 0 0 0 0 0 0 0 0 0 0.25 0"/>
<feBlend mode="normal" in2="BackgroundImageFix" result="effect1_dropShadow_19_30"/>
<feBlend mode="normal" in="SourceGraphic" in2="effect1_dropShadow_19_30" result="shape"/>
</filter>
</defs>
</svg>
