<svg width="44" height="17" viewBox="0 0 44 17" fill="none" xmlns="http://www.w3.org/2000/svg">
<path d="M29.9309 9.6922C29.7534 9.5083 29.6079 9.28624 29.5341 9.03173C29.4617 8.79498 29.6696 8.75143 29.6329 8.6674C29.4983 8.30978 29.2384 8.09924 28.8931 7.97255C28.3776 7.80142 27.8936 7.78518 27.3877 7.8067C27.6064 7.46725 27.7893 7.11827 27.9429 6.74609C28.1487 6.80164 29.3387 7.07691 30.0519 8.41895C30.538 9.38779 30.1986 9.92674 29.9309 9.6922Z" fill="#B7AB98"/>
<path d="M29.0836 3.95379C28.7001 3.74529 28.689 3.70677 28.599 3.51211C28.3691 2.98976 27.8633 2.99997 27.858 2.98058C27.7456 2.59331 27.5128 2.32742 27.1389 2.17115C26.7197 1.99522 26.0289 2.06632 25.4192 2.40589C24.3754 2.98653 23.6641 4.16086 22.8513 4.88706C21.9119 5.72635 20.667 6.04291 19.5478 5.43991C18.8681 5.07371 18.2999 4.71979 17.4996 4.71397C16.5012 4.70661 15.582 5.16148 14.7898 5.77469C14.655 5.86725 14.6367 5.73798 14.5528 5.8242C14.3178 6.06476 14.5394 5.80856 13.8957 6.62136C13.9246 6.61541 14.2077 6.41363 14.6008 6.21392C14.779 6.13223 14.7337 6.03386 14.8165 5.95993C15.6272 5.49859 16.57 4.99409 17.5289 5.11339C18.4586 5.25972 18.651 6.0464 18.1481 6.30984C17.7355 6.56125 16.6332 6.9798 14.7071 8.35438C14.3844 8.62634 13.9014 9.02871 13.8096 9.48344C13.7961 9.59488 13.8513 9.66908 13.967 9.71965C14.2539 9.84369 14.8087 9.79733 15.1238 9.75684C15.3572 9.74532 15.2508 9.43215 15.047 9.31261C14.9081 9.23517 14.7561 9.23271 14.5857 9.2636C14.8604 8.6435 16.0625 8.73671 17.4956 8.46361C20.0044 8.0241 20.9703 6.58568 24.2929 5.17234C24.9142 4.92389 25.7627 4.57308 26.4205 4.57308C27.1866 4.55744 27.4132 5.36002 27.0768 6.11594C27.0806 5.76952 27.0904 5.35873 26.7474 5.23386C25.6475 4.97599 22.4248 6.43638 19.8863 8.68254C19.5869 8.94989 19.1179 9.40372 18.9131 9.74442C20.9913 8.68254 23.1829 7.35569 24.7069 7.45212C25.2329 7.47512 25.6495 7.6959 25.4501 8.16111C25.1907 8.70762 24.6174 9.05588 24.1141 9.30493C24.0819 9.19534 24.0478 9.10255 23.9183 9.08989C23.6859 9.06698 23.4429 9.09397 23.2469 9.18796C23.0162 9.30481 22.8943 9.53868 23.1725 9.67862C23.5483 9.8909 24.2671 9.92101 25.069 9.39208C26.8341 8.25571 27.5857 6.28876 27.6714 6.07303C27.8098 5.68822 27.8014 5.43163 27.7776 5.18397C27.7504 4.92338 27.7362 4.66059 28.056 4.4517C27.7057 5.03338 28.1382 5.76952 28.817 5.75194C28.6818 5.45904 28.7328 5.22663 28.7411 5.22727C28.827 5.23464 29.0045 5.25622 29.1104 5.24769C29.3923 5.23128 29.5509 5.04036 29.6859 4.8179C29.7356 4.73414 29.6295 4.74203 29.6091 4.55835C29.7998 4.57787 29.8937 4.56791 29.9085 4.52771C29.9314 4.4645 29.7568 4.3205 29.0836 3.95379Z" fill="#B7AB98"/>
<path d="M9.60708 15.6432C9.46448 15.7588 9.20585 15.8322 8.97436 15.8322C8.62674 15.8322 8.213 15.6769 8.213 14.9386V12.8066H7.23438V15.1971C7.23438 15.8991 7.52827 16.3778 8.03954 16.5523C8.18003 16.6002 8.33603 16.6264 8.50807 16.6264C8.66947 16.6264 8.81222 16.5983 8.93786 16.5523C9.44343 16.3669 9.66262 15.8794 9.60615 15.6451L9.60708 15.6432Z" fill="#B7AB98"/>
<path d="M9.83028 12.8076V14.9395C9.83028 14.966 9.82965 14.992 9.82812 15.0175L9.83239 15.008L9.83028 16.5533H10.8089V12.8076H9.83028Z" fill="#B7AB98"/>
<path d="M13.8912 14.4044L13.1664 14.2491C12.8032 14.1763 12.727 13.9807 12.727 13.8294C12.727 13.6836 12.804 13.4386 13.3175 13.4386C13.7319 13.4386 13.9702 13.6154 14.0275 13.9636H14.8341C14.8064 13.3594 14.4848 12.9628 13.9126 12.8077C13.7333 12.759 13.5301 12.7334 13.3027 12.7334C13.0745 12.7334 12.8677 12.7593 12.6846 12.8077C12.1132 12.9586 11.7773 13.3331 11.7773 13.8591C11.7773 14.4118 12.1323 14.7735 12.8328 14.9342L13.5424 15.082C13.8143 15.138 13.9526 15.2695 13.9526 15.4721C13.9526 15.7581 13.7131 15.9222 13.2953 15.9222C12.8531 15.9222 12.6021 15.7427 12.5481 15.389H11.6748C11.6974 15.9981 12.0353 16.3974 12.6426 16.5532C12.8321 16.6019 13.0471 16.6275 13.2878 16.6275C13.5382 16.6275 13.7638 16.6016 13.9632 16.5532C14.5981 16.3991 14.9609 16.0107 14.9609 15.4499C14.9609 14.8971 14.6215 14.5643 13.8912 14.4044Z" fill="#B7AB98"/>
<path d="M18.2818 15.1528C18.1752 15.5997 17.8958 15.8257 17.4496 15.8257C16.8483 15.8257 16.4892 15.4005 16.4892 14.6879C16.4892 13.9658 16.8483 13.5352 17.4496 13.5352C17.8984 13.5352 18.1786 13.7565 18.2818 14.1932H19.1612C19.0451 13.3017 18.5313 12.9425 18.0386 12.8077C17.8305 12.7506 17.6262 12.7334 17.4571 12.7334C17.2714 12.7334 17.079 12.757 16.8913 12.8077C16.1989 12.9945 15.5693 13.5532 15.5693 14.6879C15.5693 15.4408 15.9198 16.2997 16.8608 16.5532C17.0381 16.601 17.2362 16.6275 17.4571 16.6275C17.6027 16.6275 17.8091 16.6133 18.0286 16.5532C18.5116 16.4211 19.0584 16.0669 19.1619 15.1528H18.2818Z" fill="#B7AB98"/>
<path d="M20.0273 11.4746V16.5517H21.0059V11.4746H20.0273Z" fill="#B7AB98"/>
<path d="M22.7943 14.3206L22.8024 14.3106C22.8807 13.7498 23.1999 13.4535 23.7257 13.4535C24.271 13.4535 24.5943 13.7679 24.6126 14.316L24.6139 14.3206H22.7943ZM25.5318 14.6581C25.5318 14.0456 25.3634 13.08 24.3577 12.8075C24.1831 12.7603 23.984 12.7334 23.7554 12.7334C23.5357 12.7334 23.3327 12.7587 23.1475 12.8075C22.3401 13.0209 21.875 13.6848 21.875 14.6729C21.875 15.9578 22.6004 16.4028 23.1807 16.5532C23.4194 16.615 23.6337 16.6275 23.7628 16.6275C23.9728 16.6275 24.1671 16.6016 24.3448 16.5532C24.9201 16.3965 25.3169 15.995 25.4669 15.3965H24.6139C24.5004 15.7447 24.2332 15.9074 23.7777 15.9074C23.1885 15.9074 22.8603 15.5881 22.8024 14.9584L22.797 14.92H25.5176C25.527 14.8416 25.5318 14.7735 25.5318 14.6581Z" fill="#B7AB98"/>
<path d="M27.3777 12.8066H26.3984V16.5523H27.3777V14.4239L27.3786 14.4209V14.3718C27.378 14.388 27.3777 14.4042 27.3777 14.4202V12.8066Z" fill="#B7AB98"/>
<path d="M31.4283 12.8077C31.2934 12.7597 31.1438 12.7334 30.9788 12.7334C30.817 12.7334 30.671 12.7614 30.5406 12.8077C30.1174 12.9578 29.8634 13.3069 29.8078 13.5736L29.7672 13.7687L29.7098 13.5776C29.5945 13.194 29.3537 12.9285 29.026 12.8077C28.8956 12.7595 28.7519 12.7337 28.5962 12.7334C28.4202 12.7332 28.2752 12.7612 28.1537 12.8077C27.6777 12.9894 27.581 13.4661 27.5667 13.751L27.5605 13.7898C27.6788 13.6329 27.8607 13.5278 28.1232 13.5278C28.4363 13.5278 28.8103 13.6823 28.8103 14.4213V16.5533H29.7889V14.4213C29.7889 13.9893 29.9846 13.5278 30.5354 13.5278C30.8485 13.5278 31.2217 13.6823 31.2217 14.4213V16.5533H32.2011V14.1628C32.2011 13.4609 31.919 12.9821 31.4283 12.8077Z" fill="#B7AB98"/>
<path d="M1.47921 12.8066H0.5V16.5523H1.47921V14.4239L1.4801 14.4209V14.3718C1.47956 14.388 1.47921 14.4042 1.47921 14.4202V12.8066Z" fill="#B7AB98"/>
<path d="M5.08041 12.7334C4.39332 12.7334 3.98223 13.2246 3.90933 13.5736L3.86891 13.7686L3.81147 13.5776C3.65027 13.0411 3.24457 12.7342 2.69784 12.7334C1.83199 12.7319 1.6862 13.3935 1.66834 13.751L1.66211 13.7897C1.78048 13.6329 1.96233 13.5277 2.22479 13.5277C2.53791 13.5277 2.91187 13.6823 2.91187 14.4213V16.5532H3.89049V14.4213C3.89049 13.9893 4.08623 13.5277 4.63694 13.5277C4.95006 13.5277 5.32338 13.6823 5.32338 14.4213V16.5532H6.30265V14.1628C6.30265 13.2679 5.84578 12.7334 5.08041 12.7334Z" fill="#B7AB98"/>
<path d="M33.6896 12.2549C33.9831 12.2549 34.2309 12.0073 34.2309 11.7137C34.2309 11.4167 33.9831 11.165 33.6896 11.165C33.3967 11.165 33.1484 11.4167 33.1484 11.7137C33.1484 12.0073 33.3967 12.2549 33.6896 12.2549Z" fill="#B7AB98"/>
<path d="M33.1992 16.5533H34.1785V12.8076H33.1992V16.5533Z" fill="#B7AB98"/>
<path d="M36.237 12.8076H35.2578V16.5532H36.237V14.4212C36.237 14.3904 36.2385 14.3604 36.2404 14.3309V14.3262L36.237 14.3352V12.8076Z" fill="#B7AB98"/>
<path d="M38.0315 12.8077C37.8907 12.7597 37.7347 12.7334 37.563 12.7334C37.3511 12.7334 37.1784 12.7609 37.0371 12.8077C36.4931 12.9874 36.418 13.4565 36.418 13.7853L36.4107 13.8272L36.4082 13.8335H36.4092C36.5554 13.6365 36.7913 13.5278 37.097 13.5278C37.4443 13.5278 37.8578 13.6823 37.8578 14.4213V16.5533H38.837V14.1628C38.837 13.4609 38.5426 12.9821 38.0315 12.8077Z" fill="#B7AB98"/>
<path d="M42.521 11.4746V15.0498C42.521 15.0508 42.5205 15.0521 42.5205 15.053V15.0594L42.521 15.0574V16.5517H43.4997V11.4746H42.521Z" fill="#B7AB98"/>
<path d="M41.7213 12.8075C41.6075 12.7613 41.4834 12.7347 41.3529 12.7334C41.348 12.7334 41.3431 12.7334 41.3382 12.7334C41.1748 12.7334 41.0115 12.758 40.8545 12.8075C40.228 13.005 39.7021 13.6048 39.7021 14.6803C39.7021 15.7559 40.228 16.3557 40.8545 16.5532C41.012 16.6026 41.1753 16.6272 41.3382 16.6272C41.4981 16.6272 41.6306 16.5998 41.7419 16.5532C42.2384 16.3449 42.2992 15.7495 42.3453 15.4565L42.3473 15.451H42.3468C42.1888 15.6791 41.9426 15.8332 41.5972 15.8332C41.1474 15.8332 40.6224 15.5314 40.6224 14.6803C40.6224 13.8292 41.1474 13.5277 41.5972 13.5277C41.9489 13.5277 42.1986 13.6879 42.3556 13.923V13.7505C42.3556 13.3247 42.0936 12.9584 41.7213 12.8075Z" fill="#B7AB98"/>
</svg>
